<svg viewBox="0 0 940 370" xmlns="http://www.w3.org/2000/svg" role="img" aria-label="One deal shown fully with nine smaller repeats"><text x="30" y="30" text-anchor="start" font-family="Satoshi, sans-serif" font-size="11" font-weight="700" letter-spacing="1.6" fill="#8B5E83" opacity="1">ONE DEAL</text>
<rect x="30" y="48" width="620" height="52" rx="9" fill="#8B5E83" fill-opacity="0.035" stroke="#8B5E83" stroke-opacity="0.3" stroke-dasharray="5 4"/>
<circle cx="82" cy="74.0" r="19" fill="#8B5E83" opacity="0.14"/>
<text x="82" y="79.0" text-anchor="middle" font-family="Cormorant Garamond, serif" font-size="17" fill="#8B5E83" opacity="1.0">100</text>
<path d="M 108 74.0 L 142 74.0" stroke="#8B5E83" stroke-opacity="0.35" stroke-width="1.3"/>
<rect x="148" y="59.0" width="118" height="30" rx="6" fill="#8B5E83" opacity="1.0"/>
<text x="207" y="80.0" text-anchor="middle" font-family="Cormorant Garamond, serif" font-size="17" fill="#fff" opacity="1.0">$100,000</text>
<path d="M 272 74.0 L 306 74.0" stroke="#8B5E83" stroke-opacity="0.35" stroke-width="1.3"/>
<circle cx="328" cy="74.0" r="15" fill="#FBF8F2" stroke="#8B5E83" stroke-opacity="0.5" stroke-width="1.3"/>
<circle cx="328" cy="74.0" r="5.5" fill="#C9A84C" opacity="1.0"/>
<text x="30" y="142" text-anchor="start" font-family="Satoshi, sans-serif" font-size="11" font-weight="700" letter-spacing="1.6" fill="#8B5E83" opacity="1">x 10 A YEAR</text>
<rect x="30" y="158" width="272" height="38" rx="9" fill="#8B5E83" fill-opacity="0.015750000000000004" stroke="#8B5E83" stroke-opacity="0.135" stroke-dasharray="5 4"/>
<circle cx="82" cy="177.0" r="19" fill="#8B5E83" opacity="0.06300000000000001"/>
<path d="M 108 177.0 L 142 177.0" stroke="#8B5E83" stroke-opacity="0.1575" stroke-width="1.3"/>
<rect x="148" y="162.0" width="118" height="30" rx="6" fill="#8B5E83" opacity="0.45"/>
<path d="M 272 177.0 L 306 177.0" stroke="#8B5E83" stroke-opacity="0.1575" stroke-width="1.3"/>
<circle cx="328" cy="177.0" r="15" fill="#FBF8F2" stroke="#8B5E83" stroke-opacity="0.225" stroke-width="1.3"/>
<circle cx="328" cy="177.0" r="5.5" fill="#C9A84C" opacity="0.45"/>
<rect x="330" y="158" width="272" height="38" rx="9" fill="#8B5E83" fill-opacity="0.015750000000000004" stroke="#8B5E83" stroke-opacity="0.135" stroke-dasharray="5 4"/>
<circle cx="382" cy="177.0" r="19" fill="#8B5E83" opacity="0.06300000000000001"/>
<path d="M 408 177.0 L 442 177.0" stroke="#8B5E83" stroke-opacity="0.1575" stroke-width="1.3"/>
<rect x="448" y="162.0" width="118" height="30" rx="6" fill="#8B5E83" opacity="0.45"/>
<path d="M 572 177.0 L 606 177.0" stroke="#8B5E83" stroke-opacity="0.1575" stroke-width="1.3"/>
<circle cx="628" cy="177.0" r="15" fill="#FBF8F2" stroke="#8B5E83" stroke-opacity="0.225" stroke-width="1.3"/>
<circle cx="628" cy="177.0" r="5.5" fill="#C9A84C" opacity="0.45"/>
<rect x="630" y="158" width="272" height="38" rx="9" fill="#8B5E83" fill-opacity="0.015750000000000004" stroke="#8B5E83" stroke-opacity="0.135" stroke-dasharray="5 4"/>
<circle cx="682" cy="177.0" r="19" fill="#8B5E83" opacity="0.06300000000000001"/>
<path d="M 708 177.0 L 742 177.0" stroke="#8B5E83" stroke-opacity="0.1575" stroke-width="1.3"/>
<rect x="748" y="162.0" width="118" height="30" rx="6" fill="#8B5E83" opacity="0.45"/>
<path d="M 872 177.0 L 906 177.0" stroke="#8B5E83" stroke-opacity="0.1575" stroke-width="1.3"/>
<circle cx="928" cy="177.0" r="15" fill="#FBF8F2" stroke="#8B5E83" stroke-opacity="0.225" stroke-width="1.3"/>
<circle cx="928" cy="177.0" r="5.5" fill="#C9A84C" opacity="0.45"/>
<rect x="30" y="204" width="272" height="38" rx="9" fill="#8B5E83" fill-opacity="0.015750000000000004" stroke="#8B5E83" stroke-opacity="0.135" stroke-dasharray="5 4"/>
<circle cx="82" cy="223.0" r="19" fill="#8B5E83" opacity="0.06300000000000001"/>
<path d="M 108 223.0 L 142 223.0" stroke="#8B5E83" stroke-opacity="0.1575" stroke-width="1.3"/>
<rect x="148" y="208.0" width="118" height="30" rx="6" fill="#8B5E83" opacity="0.45"/>
<path d="M 272 223.0 L 306 223.0" stroke="#8B5E83" stroke-opacity="0.1575" stroke-width="1.3"/>
<circle cx="328" cy="223.0" r="15" fill="#FBF8F2" stroke="#8B5E83" stroke-opacity="0.225" stroke-width="1.3"/>
<circle cx="328" cy="223.0" r="5.5" fill="#C9A84C" opacity="0.45"/>
<rect x="330" y="204" width="272" height="38" rx="9" fill="#8B5E83" fill-opacity="0.015750000000000004" stroke="#8B5E83" stroke-opacity="0.135" stroke-dasharray="5 4"/>
<circle cx="382" cy="223.0" r="19" fill="#8B5E83" opacity="0.06300000000000001"/>
<path d="M 408 223.0 L 442 223.0" stroke="#8B5E83" stroke-opacity="0.1575" stroke-width="1.3"/>
<rect x="448" y="208.0" width="118" height="30" rx="6" fill="#8B5E83" opacity="0.45"/>
<path d="M 572 223.0 L 606 223.0" stroke="#8B5E83" stroke-opacity="0.1575" stroke-width="1.3"/>
<circle cx="628" cy="223.0" r="15" fill="#FBF8F2" stroke="#8B5E83" stroke-opacity="0.225" stroke-width="1.3"/>
<circle cx="628" cy="223.0" r="5.5" fill="#C9A84C" opacity="0.45"/>
<rect x="630" y="204" width="272" height="38" rx="9" fill="#8B5E83" fill-opacity="0.015750000000000004" stroke="#8B5E83" stroke-opacity="0.135" stroke-dasharray="5 4"/>
<circle cx="682" cy="223.0" r="19" fill="#8B5E83" opacity="0.06300000000000001"/>
<path d="M 708 223.0 L 742 223.0" stroke="#8B5E83" stroke-opacity="0.1575" stroke-width="1.3"/>
<rect x="748" y="208.0" width="118" height="30" rx="6" fill="#8B5E83" opacity="0.45"/>
<path d="M 872 223.0 L 906 223.0" stroke="#8B5E83" stroke-opacity="0.1575" stroke-width="1.3"/>
<circle cx="928" cy="223.0" r="15" fill="#FBF8F2" stroke="#8B5E83" stroke-opacity="0.225" stroke-width="1.3"/>
<circle cx="928" cy="223.0" r="5.5" fill="#C9A84C" opacity="0.45"/>
<rect x="30" y="250" width="272" height="38" rx="9" fill="#8B5E83" fill-opacity="0.015750000000000004" stroke="#8B5E83" stroke-opacity="0.135" stroke-dasharray="5 4"/>
<circle cx="82" cy="269.0" r="19" fill="#8B5E83" opacity="0.06300000000000001"/>
<path d="M 108 269.0 L 142 269.0" stroke="#8B5E83" stroke-opacity="0.1575" stroke-width="1.3"/>
<rect x="148" y="254.0" width="118" height="30" rx="6" fill="#8B5E83" opacity="0.45"/>
<path d="M 272 269.0 L 306 269.0" stroke="#8B5E83" stroke-opacity="0.1575" stroke-width="1.3"/>
<circle cx="328" cy="269.0" r="15" fill="#FBF8F2" stroke="#8B5E83" stroke-opacity="0.225" stroke-width="1.3"/>
<circle cx="328" cy="269.0" r="5.5" fill="#C9A84C" opacity="0.45"/>
<rect x="330" y="250" width="272" height="38" rx="9" fill="#8B5E83" fill-opacity="0.015750000000000004" stroke="#8B5E83" stroke-opacity="0.135" stroke-dasharray="5 4"/>
<circle cx="382" cy="269.0" r="19" fill="#8B5E83" opacity="0.06300000000000001"/>
<path d="M 408 269.0 L 442 269.0" stroke="#8B5E83" stroke-opacity="0.1575" stroke-width="1.3"/>
<rect x="448" y="254.0" width="118" height="30" rx="6" fill="#8B5E83" opacity="0.45"/>
<path d="M 572 269.0 L 606 269.0" stroke="#8B5E83" stroke-opacity="0.1575" stroke-width="1.3"/>
<circle cx="628" cy="269.0" r="15" fill="#FBF8F2" stroke="#8B5E83" stroke-opacity="0.225" stroke-width="1.3"/>
<circle cx="628" cy="269.0" r="5.5" fill="#C9A84C" opacity="0.45"/>
<rect x="630" y="250" width="272" height="38" rx="9" fill="#8B5E83" fill-opacity="0.015750000000000004" stroke="#8B5E83" stroke-opacity="0.135" stroke-dasharray="5 4"/>
<circle cx="682" cy="269.0" r="19" fill="#8B5E83" opacity="0.06300000000000001"/>
<path d="M 708 269.0 L 742 269.0" stroke="#8B5E83" stroke-opacity="0.1575" stroke-width="1.3"/>
<rect x="748" y="254.0" width="118" height="30" rx="6" fill="#8B5E83" opacity="0.45"/>
<path d="M 872 269.0 L 906 269.0" stroke="#8B5E83" stroke-opacity="0.1575" stroke-width="1.3"/>
<circle cx="928" cy="269.0" r="15" fill="#FBF8F2" stroke="#8B5E83" stroke-opacity="0.225" stroke-width="1.3"/>
<circle cx="928" cy="269.0" r="5.5" fill="#C9A84C" opacity="0.45"/>
<path d="M 30 306 L 900 306" stroke="#2F3E34" stroke-opacity="0.16"/>
<text x="30" y="344" text-anchor="start" font-family="Cormorant Garamond, serif" font-size="30" fill="#2F3E34" opacity="1">$1,000,000 into Utah companies</text></svg>