<svg viewBox="0 0 1000 380" xmlns="http://www.w3.org/2000/svg" role="img" aria-label="A constellation of connected points"><path d="M 168.7 109.5 L 146.8 162.8" stroke="#8B5E83" stroke-opacity="0.16" stroke-width="1"/>
<path d="M 168.7 109.5 L 130.9 163.2" stroke="#8B5E83" stroke-opacity="0.16" stroke-width="1"/>
<path d="M 168.7 109.5 L 222.8 65.7" stroke="#8B5E83" stroke-opacity="0.16" stroke-width="1"/>
<path d="M 168.7 109.5 L 141.9 106.8" stroke="#8B5E83" stroke-opacity="0.16" stroke-width="1"/>
<path d="M 168.7 109.5 L 190.6 169.9" stroke="#8B5E83" stroke-opacity="0.16" stroke-width="1"/>
<path d="M 358.6 63.6 L 286.9 60.2" stroke="#8B5E83" stroke-opacity="0.16" stroke-width="1"/>
<path d="M 358.6 63.6 L 360.3 107.4" stroke="#8B5E83" stroke-opacity="0.16" stroke-width="1"/>
<path d="M 358.6 63.6 L 299.7 66.0" stroke="#8B5E83" stroke-opacity="0.16" stroke-width="1"/>
<path d="M 358.6 63.6 L 358.1 70.3" stroke="#8B5E83" stroke-opacity="0.16" stroke-width="1"/>
<path d="M 286.9 60.2 L 222.8 65.7" stroke="#8B5E83" stroke-opacity="0.16" stroke-width="1"/>
<path d="M 286.9 60.2 L 299.7 66.0" stroke="#8B5E83" stroke-opacity="0.16" stroke-width="1"/>
<path d="M 286.9 60.2 L 358.1 70.3" stroke="#8B5E83" stroke-opacity="0.16" stroke-width="1"/>
<path d="M 439.5 206.2 L 459.6 152.6" stroke="#8B5E83" stroke-opacity="0.16" stroke-width="1"/>
<path d="M 439.5 206.2 L 392.8 194.8" stroke="#8B5E83" stroke-opacity="0.16" stroke-width="1"/>
<path d="M 439.5 206.2 L 500.2 191.4" stroke="#8B5E83" stroke-opacity="0.16" stroke-width="1"/>
<path d="M 439.5 206.2 L 499.2 176.1" stroke="#8B5E83" stroke-opacity="0.16" stroke-width="1"/>
<path d="M 439.5 206.2 L 474.4 192.3" stroke="#8B5E83" stroke-opacity="0.16" stroke-width="1"/>
<path d="M 439.5 206.2 L 488.2 203.5" stroke="#8B5E83" stroke-opacity="0.16" stroke-width="1"/>
<path d="M 439.5 206.2 L 443.3 262.8" stroke="#8B5E83" stroke-opacity="0.16" stroke-width="1"/>
<path d="M 439.5 206.2 L 504.0 220.1" stroke="#8B5E83" stroke-opacity="0.16" stroke-width="1"/>
<path d="M 439.5 206.2 L 400.4 230.8" stroke="#8B5E83" stroke-opacity="0.16" stroke-width="1"/>
<path d="M 459.6 152.6 L 500.2 191.4" stroke="#8B5E83" stroke-opacity="0.16" stroke-width="1"/>
<path d="M 459.6 152.6 L 499.2 176.1" stroke="#8B5E83" stroke-opacity="0.16" stroke-width="1"/>
<path d="M 459.6 152.6 L 387.3 146.7" stroke="#8B5E83" stroke-opacity="0.16" stroke-width="1"/>
<path d="M 459.6 152.6 L 474.4 192.3" stroke="#8B5E83" stroke-opacity="0.16" stroke-width="1"/>
<path d="M 459.6 152.6 L 488.2 203.5" stroke="#8B5E83" stroke-opacity="0.16" stroke-width="1"/>
<path d="M 459.6 152.6 L 488.9 133.7" stroke="#8B5E83" stroke-opacity="0.16" stroke-width="1"/>
<path d="M 352.9 166.1 L 392.8 194.8" stroke="#8B5E83" stroke-opacity="0.16" stroke-width="1"/>
<path d="M 352.9 166.1 L 307.8 140.7" stroke="#8B5E83" stroke-opacity="0.16" stroke-width="1"/>
<path d="M 352.9 166.1 L 321.3 146.1" stroke="#8B5E83" stroke-opacity="0.16" stroke-width="1"/>
<path d="M 352.9 166.1 L 387.3 146.7" stroke="#8B5E83" stroke-opacity="0.16" stroke-width="1"/>
<path d="M 352.9 166.1 L 329.3 214.0" stroke="#8B5E83" stroke-opacity="0.16" stroke-width="1"/>
<path d="M 352.9 166.1 L 360.3 107.4" stroke="#8B5E83" stroke-opacity="0.16" stroke-width="1"/>
<path d="M 352.9 166.1 L 287.4 163.0" stroke="#8B5E83" stroke-opacity="0.16" stroke-width="1"/>
<path d="M 352.9 166.1 L 326.7 187.3" stroke="#8B5E83" stroke-opacity="0.16" stroke-width="1"/>
<path d="M 352.9 166.1 L 340.0 191.4" stroke="#8B5E83" stroke-opacity="0.16" stroke-width="1"/>
<path d="M 201.9 202.2 L 146.8 162.8" stroke="#8B5E83" stroke-opacity="0.16" stroke-width="1"/>
<path d="M 201.9 202.2 L 248.7 160.6" stroke="#8B5E83" stroke-opacity="0.16" stroke-width="1"/>
<path d="M 201.9 202.2 L 248.3 228.8" stroke="#8B5E83" stroke-opacity="0.16" stroke-width="1"/>
<path d="M 201.9 202.2 L 240.5 250.8" stroke="#8B5E83" stroke-opacity="0.16" stroke-width="1"/>
<path d="M 201.9 202.2 L 193.4 265.0" stroke="#8B5E83" stroke-opacity="0.16" stroke-width="1"/>
<path d="M 201.9 202.2 L 231.7 253.8" stroke="#8B5E83" stroke-opacity="0.16" stroke-width="1"/>
<path d="M 201.9 202.2 L 190.6 169.9" stroke="#8B5E83" stroke-opacity="0.16" stroke-width="1"/>
<path d="M 146.8 162.8 L 130.9 163.2" stroke="#8B5E83" stroke-opacity="0.16" stroke-width="1"/>
<path d="M 146.8 162.8 L 114.4 171.7" stroke="#8B5E83" stroke-opacity="0.16" stroke-width="1"/>
<path d="M 146.8 162.8 L 141.9 106.8" stroke="#8B5E83" stroke-opacity="0.16" stroke-width="1"/>
<path d="M 146.8 162.8 L 190.6 169.9" stroke="#8B5E83" stroke-opacity="0.16" stroke-width="1"/>
<path d="M 392.8 194.8 L 387.3 146.7" stroke="#8B5E83" stroke-opacity="0.16" stroke-width="1"/>
<path d="M 392.8 194.8 L 329.3 214.0" stroke="#8B5E83" stroke-opacity="0.16" stroke-width="1"/>
<path d="M 392.8 194.8 L 326.7 187.3" stroke="#8B5E83" stroke-opacity="0.16" stroke-width="1"/>
<path d="M 392.8 194.8 L 340.0 191.4" stroke="#8B5E83" stroke-opacity="0.16" stroke-width="1"/>
<path d="M 392.8 194.8 L 400.4 230.8" stroke="#8B5E83" stroke-opacity="0.16" stroke-width="1"/>
<path d="M 262.1 317.4 L 248.3 319.1" stroke="#8B5E83" stroke-opacity="0.16" stroke-width="1"/>
<path d="M 262.1 317.4 L 248.1 287.7" stroke="#8B5E83" stroke-opacity="0.16" stroke-width="1"/>
<path d="M 262.1 317.4 L 240.5 250.8" stroke="#8B5E83" stroke-opacity="0.16" stroke-width="1"/>
<path d="M 262.1 317.4 L 242.0 273.3" stroke="#8B5E83" stroke-opacity="0.16" stroke-width="1"/>
<path d="M 262.1 317.4 L 231.7 253.8" stroke="#8B5E83" stroke-opacity="0.16" stroke-width="1"/>
<path d="M 307.8 140.7 L 321.3 146.1" stroke="#8B5E83" stroke-opacity="0.16" stroke-width="1"/>
<path d="M 307.8 140.7 L 248.7 160.6" stroke="#8B5E83" stroke-opacity="0.16" stroke-width="1"/>
<path d="M 307.8 140.7 L 360.3 107.4" stroke="#8B5E83" stroke-opacity="0.16" stroke-width="1"/>
<path d="M 307.8 140.7 L 287.4 163.0" stroke="#8B5E83" stroke-opacity="0.16" stroke-width="1"/>
<path d="M 307.8 140.7 L 326.7 187.3" stroke="#8B5E83" stroke-opacity="0.16" stroke-width="1"/>
<path d="M 307.8 140.7 L 340.0 191.4" stroke="#8B5E83" stroke-opacity="0.16" stroke-width="1"/>
<path d="M 321.3 146.1 L 387.3 146.7" stroke="#8B5E83" stroke-opacity="0.16" stroke-width="1"/>
<path d="M 321.3 146.1 L 329.3 214.0" stroke="#8B5E83" stroke-opacity="0.16" stroke-width="1"/>
<path d="M 321.3 146.1 L 360.3 107.4" stroke="#8B5E83" stroke-opacity="0.16" stroke-width="1"/>
<path d="M 321.3 146.1 L 287.4 163.0" stroke="#8B5E83" stroke-opacity="0.16" stroke-width="1"/>
<path d="M 321.3 146.1 L 326.7 187.3" stroke="#8B5E83" stroke-opacity="0.16" stroke-width="1"/>
<path d="M 321.3 146.1 L 340.0 191.4" stroke="#8B5E83" stroke-opacity="0.16" stroke-width="1"/>
<path d="M 248.7 160.6 L 248.3 228.8" stroke="#8B5E83" stroke-opacity="0.16" stroke-width="1"/>
<path d="M 248.7 160.6 L 287.4 163.0" stroke="#8B5E83" stroke-opacity="0.16" stroke-width="1"/>
<path d="M 248.7 160.6 L 190.6 169.9" stroke="#8B5E83" stroke-opacity="0.16" stroke-width="1"/>
<path d="M 500.2 191.4 L 499.2 176.1" stroke="#8B5E83" stroke-opacity="0.16" stroke-width="1"/>
<path d="M 500.2 191.4 L 474.4 192.3" stroke="#8B5E83" stroke-opacity="0.16" stroke-width="1"/>
<path d="M 500.2 191.4 L 488.2 203.5" stroke="#8B5E83" stroke-opacity="0.16" stroke-width="1"/>
<path d="M 500.2 191.4 L 488.9 133.7" stroke="#8B5E83" stroke-opacity="0.16" stroke-width="1"/>
<path d="M 500.2 191.4 L 504.0 220.1" stroke="#8B5E83" stroke-opacity="0.16" stroke-width="1"/>
<path d="M 323.4 246.6 L 329.3 214.0" stroke="#8B5E83" stroke-opacity="0.16" stroke-width="1"/>
<path d="M 323.4 246.6 L 326.7 187.3" stroke="#8B5E83" stroke-opacity="0.16" stroke-width="1"/>
<path d="M 323.4 246.6 L 340.0 191.4" stroke="#8B5E83" stroke-opacity="0.16" stroke-width="1"/>
<path d="M 323.4 246.6 L 361.1 300.1" stroke="#8B5E83" stroke-opacity="0.16" stroke-width="1"/>
<path d="M 499.2 176.1 L 474.4 192.3" stroke="#8B5E83" stroke-opacity="0.16" stroke-width="1"/>
<path d="M 499.2 176.1 L 488.2 203.5" stroke="#8B5E83" stroke-opacity="0.16" stroke-width="1"/>
<path d="M 499.2 176.1 L 488.9 133.7" stroke="#8B5E83" stroke-opacity="0.16" stroke-width="1"/>
<path d="M 499.2 176.1 L 504.0 220.1" stroke="#8B5E83" stroke-opacity="0.16" stroke-width="1"/>
<path d="M 248.3 319.1 L 248.1 287.7" stroke="#8B5E83" stroke-opacity="0.16" stroke-width="1"/>
<path d="M 248.3 319.1 L 240.5 250.8" stroke="#8B5E83" stroke-opacity="0.16" stroke-width="1"/>
<path d="M 248.3 319.1 L 242.0 273.3" stroke="#8B5E83" stroke-opacity="0.16" stroke-width="1"/>
<path d="M 248.3 319.1 L 231.7 253.8" stroke="#8B5E83" stroke-opacity="0.16" stroke-width="1"/>
<path d="M 248.3 319.1 L 189.2 300.0" stroke="#8B5E83" stroke-opacity="0.16" stroke-width="1"/>
<path d="M 130.9 163.2 L 114.4 171.7" stroke="#8B5E83" stroke-opacity="0.16" stroke-width="1"/>
<path d="M 130.9 163.2 L 141.9 106.8" stroke="#8B5E83" stroke-opacity="0.16" stroke-width="1"/>
<path d="M 130.9 163.2 L 190.6 169.9" stroke="#8B5E83" stroke-opacity="0.16" stroke-width="1"/>
<path d="M 358.6 316.3 L 388.6 310.3" stroke="#8B5E83" stroke-opacity="0.16" stroke-width="1"/>
<path d="M 358.6 316.3 L 361.1 300.1" stroke="#8B5E83" stroke-opacity="0.16" stroke-width="1"/>
<path d="M 387.3 146.7 L 360.3 107.4" stroke="#8B5E83" stroke-opacity="0.16" stroke-width="1"/>
<path d="M 387.3 146.7 L 326.7 187.3" stroke="#8B5E83" stroke-opacity="0.16" stroke-width="1"/>
<path d="M 387.3 146.7 L 340.0 191.4" stroke="#8B5E83" stroke-opacity="0.16" stroke-width="1"/>
<path d="M 248.3 228.8 L 248.1 287.7" stroke="#8B5E83" stroke-opacity="0.16" stroke-width="1"/>
<path d="M 248.3 228.8 L 240.5 250.8" stroke="#8B5E83" stroke-opacity="0.16" stroke-width="1"/>
<path d="M 248.3 228.8 L 242.0 273.3" stroke="#8B5E83" stroke-opacity="0.16" stroke-width="1"/>
<path d="M 248.3 228.8 L 193.4 265.0" stroke="#8B5E83" stroke-opacity="0.16" stroke-width="1"/>
<path d="M 248.3 228.8 L 231.7 253.8" stroke="#8B5E83" stroke-opacity="0.16" stroke-width="1"/>
<path d="M 329.3 214.0 L 287.4 163.0" stroke="#8B5E83" stroke-opacity="0.16" stroke-width="1"/>
<path d="M 329.3 214.0 L 326.7 187.3" stroke="#8B5E83" stroke-opacity="0.16" stroke-width="1"/>
<path d="M 329.3 214.0 L 340.0 191.4" stroke="#8B5E83" stroke-opacity="0.16" stroke-width="1"/>
<path d="M 329.3 214.0 L 400.4 230.8" stroke="#8B5E83" stroke-opacity="0.16" stroke-width="1"/>
<path d="M 248.1 287.7 L 240.5 250.8" stroke="#8B5E83" stroke-opacity="0.16" stroke-width="1"/>
<path d="M 248.1 287.7 L 242.0 273.3" stroke="#8B5E83" stroke-opacity="0.16" stroke-width="1"/>
<path d="M 248.1 287.7 L 193.4 265.0" stroke="#8B5E83" stroke-opacity="0.16" stroke-width="1"/>
<path d="M 248.1 287.7 L 231.7 253.8" stroke="#8B5E83" stroke-opacity="0.16" stroke-width="1"/>
<path d="M 248.1 287.7 L 189.2 300.0" stroke="#8B5E83" stroke-opacity="0.16" stroke-width="1"/>
<path d="M 474.4 192.3 L 488.2 203.5" stroke="#8B5E83" stroke-opacity="0.16" stroke-width="1"/>
<path d="M 474.4 192.3 L 488.9 133.7" stroke="#8B5E83" stroke-opacity="0.16" stroke-width="1"/>
<path d="M 474.4 192.3 L 504.0 220.1" stroke="#8B5E83" stroke-opacity="0.16" stroke-width="1"/>
<path d="M 240.5 250.8 L 242.0 273.3" stroke="#8B5E83" stroke-opacity="0.16" stroke-width="1"/>
<path d="M 240.5 250.8 L 193.4 265.0" stroke="#8B5E83" stroke-opacity="0.16" stroke-width="1"/>
<path d="M 240.5 250.8 L 231.7 253.8" stroke="#8B5E83" stroke-opacity="0.16" stroke-width="1"/>
<path d="M 240.5 250.8 L 189.2 300.0" stroke="#8B5E83" stroke-opacity="0.16" stroke-width="1"/>
<path d="M 360.3 107.4 L 299.7 66.0" stroke="#8B5E83" stroke-opacity="0.16" stroke-width="1"/>
<path d="M 360.3 107.4 L 358.1 70.3" stroke="#8B5E83" stroke-opacity="0.16" stroke-width="1"/>
<path d="M 242.0 273.3 L 193.4 265.0" stroke="#8B5E83" stroke-opacity="0.16" stroke-width="1"/>
<path d="M 242.0 273.3 L 231.7 253.8" stroke="#8B5E83" stroke-opacity="0.16" stroke-width="1"/>
<path d="M 242.0 273.3 L 189.2 300.0" stroke="#8B5E83" stroke-opacity="0.16" stroke-width="1"/>
<path d="M 287.4 163.0 L 326.7 187.3" stroke="#8B5E83" stroke-opacity="0.16" stroke-width="1"/>
<path d="M 287.4 163.0 L 340.0 191.4" stroke="#8B5E83" stroke-opacity="0.16" stroke-width="1"/>
<path d="M 326.7 187.3 L 340.0 191.4" stroke="#8B5E83" stroke-opacity="0.16" stroke-width="1"/>
<path d="M 299.7 66.0 L 358.1 70.3" stroke="#8B5E83" stroke-opacity="0.16" stroke-width="1"/>
<path d="M 488.2 203.5 L 488.9 133.7" stroke="#8B5E83" stroke-opacity="0.16" stroke-width="1"/>
<path d="M 488.2 203.5 L 504.0 220.1" stroke="#8B5E83" stroke-opacity="0.16" stroke-width="1"/>
<path d="M 193.4 265.0 L 231.7 253.8" stroke="#8B5E83" stroke-opacity="0.16" stroke-width="1"/>
<path d="M 193.4 265.0 L 189.2 300.0" stroke="#8B5E83" stroke-opacity="0.16" stroke-width="1"/>
<path d="M 340.0 191.4 L 400.4 230.8" stroke="#8B5E83" stroke-opacity="0.16" stroke-width="1"/>
<path d="M 388.6 310.3 L 361.1 300.1" stroke="#8B5E83" stroke-opacity="0.16" stroke-width="1"/>
<path d="M 388.6 310.3 L 443.3 262.8" stroke="#8B5E83" stroke-opacity="0.16" stroke-width="1"/>
<path d="M 231.7 253.8 L 189.2 300.0" stroke="#8B5E83" stroke-opacity="0.16" stroke-width="1"/>
<path d="M 114.4 171.7 L 141.9 106.8" stroke="#8B5E83" stroke-opacity="0.16" stroke-width="1"/>
<path d="M 443.3 262.8 L 400.4 230.8" stroke="#8B5E83" stroke-opacity="0.16" stroke-width="1"/>
<circle cx="168.7" cy="109.5" r="5.5" fill="#C9A84C" opacity="0.95"/>
<circle cx="358.6" cy="63.6" r="4" fill="#8B5E83" opacity="0.7"/>
<circle cx="286.9" cy="60.2" r="4" fill="#8B5E83" opacity="0.7"/>
<circle cx="439.5" cy="206.2" r="4" fill="#8B5E83" opacity="0.7"/>
<circle cx="459.6" cy="152.6" r="4" fill="#8B5E83" opacity="0.7"/>
<circle cx="352.9" cy="166.1" r="4" fill="#8B5E83" opacity="0.7"/>
<circle cx="201.9" cy="202.2" r="4" fill="#8B5E83" opacity="0.7"/>
<circle cx="146.8" cy="162.8" r="5.5" fill="#C9A84C" opacity="0.95"/>
<circle cx="392.8" cy="194.8" r="4" fill="#8B5E83" opacity="0.7"/>
<circle cx="262.1" cy="317.4" r="4" fill="#8B5E83" opacity="0.7"/>
<circle cx="307.8" cy="140.7" r="4" fill="#8B5E83" opacity="0.7"/>
<circle cx="321.3" cy="146.1" r="4" fill="#8B5E83" opacity="0.7"/>
<circle cx="248.7" cy="160.6" r="4" fill="#8B5E83" opacity="0.7"/>
<circle cx="500.2" cy="191.4" r="4" fill="#8B5E83" opacity="0.7"/>
<circle cx="323.4" cy="246.6" r="5.5" fill="#C9A84C" opacity="0.95"/>
<circle cx="499.2" cy="176.1" r="4" fill="#8B5E83" opacity="0.7"/>
<circle cx="248.3" cy="319.1" r="4" fill="#8B5E83" opacity="0.7"/>
<circle cx="130.9" cy="163.2" r="4" fill="#8B5E83" opacity="0.7"/>
<circle cx="358.6" cy="316.3" r="4" fill="#8B5E83" opacity="0.7"/>
<circle cx="222.8" cy="65.7" r="4" fill="#8B5E83" opacity="0.7"/>
<circle cx="387.3" cy="146.7" r="4" fill="#8B5E83" opacity="0.7"/>
<circle cx="248.3" cy="228.8" r="5.5" fill="#C9A84C" opacity="0.95"/>
<circle cx="329.3" cy="214.0" r="4" fill="#8B5E83" opacity="0.7"/>
<circle cx="248.1" cy="287.7" r="4" fill="#8B5E83" opacity="0.7"/>
<circle cx="474.4" cy="192.3" r="4" fill="#8B5E83" opacity="0.7"/>
<circle cx="240.5" cy="250.8" r="4" fill="#8B5E83" opacity="0.7"/>
<circle cx="360.3" cy="107.4" r="4" fill="#8B5E83" opacity="0.7"/>
<circle cx="242.0" cy="273.3" r="4" fill="#8B5E83" opacity="0.7"/>
<circle cx="287.4" cy="163.0" r="5.5" fill="#C9A84C" opacity="0.95"/>
<circle cx="326.7" cy="187.3" r="4" fill="#8B5E83" opacity="0.7"/>
<circle cx="299.7" cy="66.0" r="4" fill="#8B5E83" opacity="0.7"/>
<circle cx="488.2" cy="203.5" r="4" fill="#8B5E83" opacity="0.7"/>
<circle cx="193.4" cy="265.0" r="4" fill="#8B5E83" opacity="0.7"/>
<circle cx="340.0" cy="191.4" r="4" fill="#8B5E83" opacity="0.7"/>
<circle cx="388.6" cy="310.3" r="4" fill="#8B5E83" opacity="0.7"/>
<circle cx="361.1" cy="300.1" r="5.5" fill="#C9A84C" opacity="0.95"/>
<circle cx="488.9" cy="133.7" r="4" fill="#8B5E83" opacity="0.7"/>
<circle cx="231.7" cy="253.8" r="4" fill="#8B5E83" opacity="0.7"/>
<circle cx="114.4" cy="171.7" r="4" fill="#8B5E83" opacity="0.7"/>
<circle cx="443.3" cy="262.8" r="4" fill="#8B5E83" opacity="0.7"/>
<circle cx="358.1" cy="70.3" r="4" fill="#8B5E83" opacity="0.7"/>
<circle cx="504.0" cy="220.1" r="4" fill="#8B5E83" opacity="0.7"/>
<circle cx="400.4" cy="230.8" r="5.5" fill="#C9A84C" opacity="0.95"/>
<circle cx="141.9" cy="106.8" r="4" fill="#8B5E83" opacity="0.7"/>
<circle cx="189.2" cy="300.0" r="4" fill="#8B5E83" opacity="0.7"/>
<circle cx="190.6" cy="169.9" r="4" fill="#8B5E83" opacity="0.7"/>
<text x="640" y="178" text-anchor="start" font-family="Cormorant Garamond, serif" font-size="30" font-style="italic" fill="#7E8E84" opacity="1">A network is only</text>
<text x="640" y="220" text-anchor="start" font-family="Cormorant Garamond, serif" font-size="34" font-style="normal" fill="#2F3E34" opacity="1">the women in it.</text></svg>