<svg viewBox="0 0 1000 380" xmlns="http://www.w3.org/2000/svg" role="img" aria-label="One hundred small marks settling into a single form"><circle cx="250.0" cy="190.0" r="6.5" fill="#8B5E83" opacity="0.42"/>
<circle cx="240.4" cy="198.8" r="6.5" fill="#8B5E83" opacity="0.42"/>
<circle cx="251.6" cy="171.7" r="6.5" fill="#8B5E83" opacity="0.43"/>
<circle cx="263.7" cy="207.9" r="6.5" fill="#8B5E83" opacity="0.43"/>
<circle cx="224.4" cy="185.5" r="6.5" fill="#8B5E83" opacity="0.44"/>
<circle cx="274.5" cy="174.4" r="6.5" fill="#8B5E83" opacity="0.45"/>
<circle cx="241.7" cy="220.8" r="6.5" fill="#8B5E83" opacity="0.45"/>
<circle cx="234.1" cy="159.5" r="6.5" fill="#8B5E83" opacity="0.45"/>
<circle cx="284.5" cy="202.6" r="6.5" fill="#8B5E83" opacity="0.46"/>
<circle cx="214.0" cy="204.9" r="6.5" fill="#8B5E83" opacity="0.46"/>
<circle cx="267.4" cy="152.8" r="6.5" fill="#8B5E83" opacity="0.47"/>
<circle cx="262.9" cy="231.1" r="6.5" fill="#8B5E83" opacity="0.47"/>
<circle cx="211.0" cy="167.4" r="6.5" fill="#8B5E83" opacity="0.48"/>
<circle cx="295.8" cy="179.9" r="6.5" fill="#8B5E83" opacity="0.48"/>
<circle cx="222.0" cy="229.8" r="6.5" fill="#8B5E83" opacity="0.49"/>
<circle cx="243.5" cy="140.1" r="6.5" fill="#8B5E83" opacity="0.49"/>
<circle cx="289.8" cy="223.5" r="6.5" fill="#8B5E83" opacity="0.50"/>
<circle cx="196.4" cy="192.2" r="6.5" fill="#8B5E83" opacity="0.51"/>
<circle cx="289.1" cy="151.1" r="6.5" fill="#8B5E83" opacity="0.51"/>
<circle cx="247.4" cy="246.6" r="6.5" fill="#8B5E83" opacity="0.52"/>
<circle cx="212.7" cy="145.4" r="6.5" fill="#8B5E83" opacity="0.52"/>
<circle cx="309.0" cy="197.9" r="6.5" fill="#8B5E83" opacity="0.53"/>
<circle cx="200.0" cy="224.8" r="6.5" fill="#8B5E83" opacity="0.53"/>
<circle cx="263.7" cy="129.2" r="6.5" fill="#8B5E83" opacity="0.54"/>
<circle cx="281.7" cy="245.2" r="6.5" fill="#8B5E83" opacity="0.54"/>
<circle cx="188.1" cy="170.3" r="6.5" fill="#8B5E83" opacity="0.54"/>
<circle cx="310.2" cy="162.2" r="6.5" fill="#8B5E83" opacity="0.55"/>
<circle cx="223.9" cy="252.3" r="6.5" fill="#8B5E83" opacity="0.55"/>
<circle cx="226.7" cy="125.3" r="6.5" fill="#8B5E83" opacity="0.56"/>
<circle cx="312.0" cy="222.5" r="6.5" fill="#8B5E83" opacity="0.56"/>
<circle cx="181.2" cy="208.2" r="6.5" fill="#8B5E83" opacity="0.57"/>
<circle cx="289.1" cy="129.1" r="6.5" fill="#8B5E83" opacity="0.57"/>
<circle cx="262.5" cy="262.5" r="6.5" fill="#8B5E83" opacity="0.58"/>
<circle cx="190.9" cy="144.3" r="6.5" fill="#8B5E83" opacity="0.58"/>
<circle cx="325.5" cy="183.7" r="6.5" fill="#8B5E83" opacity="0.59"/>
<circle cx="197.8" cy="246.5" r="6.5" fill="#8B5E83" opacity="0.59"/>
<circle cx="250.3" cy="112.0" r="6.5" fill="#8B5E83" opacity="0.60"/>
<circle cx="303.2" cy="248.5" r="6.5" fill="#8B5E83" opacity="0.60"/>
<circle cx="170.2" cy="182.6" r="6.5" fill="#8B5E83" opacity="0.61"/>
<circle cx="314.6" cy="140.9" r="6.5" fill="#8B5E83" opacity="0.61"/>
<circle cx="235.3" cy="270.9" r="6.5" fill="#8B5E83" opacity="0.62"/>
<circle cx="205.6" cy="119.6" r="6.5" fill="#8B5E83" opacity="0.62"/>
<circle cx="331.3" cy="212.2" r="6.5" fill="#8B5E83" opacity="0.63"/>
<circle cx="174.2" cy="229.0" r="6.5" fill="#8B5E83" opacity="0.64"/>
<circle cx="279.9" cy="109.1" r="6.5" fill="#8B5E83" opacity="0.64"/>
<circle cx="282.9" cy="270.8" r="6.5" fill="#8B5E83" opacity="0.65"/>
<circle cx="170.3" cy="152.3" r="6.5" fill="#8B5E83" opacity="0.65"/>
<circle cx="335.2" cy="163.7" r="6.5" fill="#8B5E83" opacity="0.66"/>
<circle cx="204.5" cy="267.7" r="6.5" fill="#8B5E83" opacity="0.66"/>
<circle cx="230.8" cy="101.0" r="6.5" fill="#8B5E83" opacity="0.67"/>
<circle cx="325.0" cy="243.2" r="6.5" fill="#8B5E83" opacity="0.67"/>
<circle cx="157.9" cy="201.5" r="6.5" fill="#8B5E83" opacity="0.68"/>
<circle cx="310.7" cy="118.6" r="6.5" fill="#8B5E83" opacity="0.68"/>
<circle cx="253.5" cy="284.6" r="6.5" fill="#8B5E83" opacity="0.69"/>
<circle cx="182.9" cy="122.0" r="6.5" fill="#8B5E83" opacity="0.69"/>
<circle cx="346.3" cy="194.9" r="6.5" fill="#8B5E83" opacity="0.70"/>
<circle cx="175.1" cy="252.0" r="6.5" fill="#8B5E83" opacity="0.70"/>
<circle cx="263.5" cy="92.8" r="6.5" fill="#8B5E83" opacity="0.70"/>
<circle cx="306.2" cy="271.5" r="6.5" fill="#8B5E83" opacity="0.71"/>
<circle cx="152.7" cy="167.7" r="6.5" fill="#8B5E83" opacity="0.71"/>
<circle cx="337.6" cy="140.3" r="6.5" fill="#8B5E83" opacity="0.72"/>
<circle cx="218.7" cy="286.6" r="6.5" fill="#8B5E83" opacity="0.72"/>
<circle cx="207.4" cy="96.9" r="6.5" fill="#8B5E83" opacity="0.73"/>
<circle cx="345.0" cy="230.2" r="6.5" fill="#8B5E83" opacity="0.73"/>
<circle cx="152.0" cy="224.8" r="6.5" fill="#8B5E83" opacity="0.74"/>
<circle cx="299.1" cy="97.4" r="6.5" fill="#8B5E83" opacity="0.74"/>
<circle cx="276.5" cy="292.2" r="6.5" fill="#8B5E83" opacity="0.75"/>
<circle cx="160.7" cy="132.1" r="6.5" fill="#8B5E83" opacity="0.76"/>
<circle cx="355.7" cy="172.3" r="6.5" fill="#8B5E83" opacity="0.76"/>
<circle cx="183.5" cy="275.1" r="6.5" fill="#8B5E83" opacity="0.76"/>
<circle cx="241.4" cy="81.6" r="6.5" fill="#8B5E83" opacity="0.77"/>
<circle cx="330.1" cy="264.7" r="6.5" fill="#8B5E83" opacity="0.77"/>
<circle cx="139.7" cy="189.0" r="6.5" fill="#8B5E83" opacity="0.78"/>
<circle cx="332.6" cy="115.7" r="6.5" fill="#8B5E83" opacity="0.78"/>
<circle cx="239.2" cy="301.3" r="6.5" fill="#8B5E83" opacity="0.79"/>
<circle cx="182.3" cy="100.1" r="6.5" fill="#8B5E83" opacity="0.79"/>
<circle cx="361.4" cy="210.7" r="6.5" fill="#8B5E83" opacity="0.80"/>
<circle cx="153.2" cy="250.4" r="6.5" fill="#8B5E83" opacity="0.80"/>
<circle cx="280.8" cy="79.4" r="6.5" fill="#8B5E83" opacity="0.81"/>
<circle cx="302.4" cy="293.0" r="6.5" fill="#8B5E83" opacity="0.81"/>
<circle cx="141.1" cy="149.2" r="6.5" fill="#8B5E83" opacity="0.82"/>
<circle cx="358.5" cy="146.3" r="6.5" fill="#8B5E83" opacity="0.82"/>
<circle cx="199.2" cy="296.2" r="6.5" fill="#8B5E83" opacity="0.83"/>
<circle cx="215.5" cy="76.7" r="6.5" fill="#8B5E83" opacity="0.83"/>
<circle cx="352.6" cy="250.6" r="6.5" fill="#8B5E83" opacity="0.84"/>
<circle cx="132.7" cy="214.7" r="6.5" fill="#8B5E83" opacity="0.84"/>
<circle cx="320.2" cy="92.0" r="6.5" fill="#8B5E83" opacity="0.85"/>
<circle cx="264.5" cy="310.4" r="6.5" fill="#8B5E83" opacity="0.85"/>
<circle cx="157.4" cy="110.6" r="6.5" fill="#8B5E83" opacity="0.86"/>
<circle cx="372.6" cy="186.0" r="6.5" fill="#8B5E83" opacity="0.86"/>
<circle cx="161.8" cy="276.2" r="6.5" fill="#8B5E83" opacity="0.87"/>
<circle cx="256.8" cy="66.2" r="6.5" fill="#8B5E83" opacity="0.88"/>
<circle cx="329.1" cy="286.4" r="6.5" fill="#8B5E83" opacity="0.88"/>
<circle cx="125.9" cy="172.2" r="6.5" fill="#8B5E83" opacity="0.89"/>
<circle cx="354.1" cy="118.9" r="6.5" fill="#8B5E83" opacity="0.89"/>
<circle cx="221.1" cy="313.4" r="6.5" fill="#8B5E83" opacity="0.90"/>
<circle cx="187.6" cy="79.0" r="6.5" fill="#8B5E83" opacity="0.90"/>
<circle cx="371.6" cy="229.9" r="6.5" fill="#8B5E83" opacity="0.91"/>
<circle cx="132.7" cy="243.0" r="6.5" fill="#8B5E83" opacity="0.91"/>
<circle cx="300.9" cy="71.1" r="6.5" fill="#8B5E83" opacity="0.92"/>
<text x="520" y="170" text-anchor="start" font-family="Cormorant Garamond, serif" font-size="30" font-style="italic" fill="#7E8E84" opacity="1">Alone, a small check.</text>
<text x="520" y="216" text-anchor="start" font-family="Cormorant Garamond, serif" font-size="30" font-style="normal" fill="#2F3E34" opacity="1">Together, an investment</text>
<text x="520" y="252" text-anchor="start" font-family="Cormorant Garamond, serif" font-size="30" font-style="normal" fill="#2F3E34" opacity="1">a founder can build with.</text></svg>