<svg viewBox="0 0 1000 250" xmlns="http://www.w3.org/2000/svg" role="img" aria-label="The deal box stacked ten deep, receding down and to the right"><text x="30" y="32" text-anchor="start" font-family="Satoshi, sans-serif" font-size="11" font-weight="700" letter-spacing="1.6" fill="#8B5E83" opacity="1">ONE DEAL</text>
<rect x="120" y="146" width="560" height="54" rx="9" fill="#FBF8F2" fill-opacity="1" stroke="#8B5E83" stroke-opacity="0.0512"/>
<circle cx="172" cy="173.0" r="19" fill="#8B5E83" opacity="0.022400000000000003"/>
<path d="M 198 173.0 L 228 173.0" stroke="#8B5E83" stroke-opacity="0.055999999999999994" stroke-width="1.3"/>
<rect x="234" y="158.0" width="116" height="30" rx="6" fill="#8B5E83" opacity="0.16"/>
<path d="M 356 173.0 L 386 173.0" stroke="#8B5E83" stroke-opacity="0.055999999999999994" stroke-width="1.3"/>
<circle cx="408" cy="173.0" r="15" fill="#FBF8F2" stroke="#8B5E83" stroke-opacity="0.08" stroke-width="1.3"/>
<circle cx="408" cy="173.0" r="5.5" fill="#C9A84C" opacity="0.16"/>
<rect x="110" y="136" width="560" height="54" rx="9" fill="#FBF8F2" fill-opacity="1" stroke="#8B5E83" stroke-opacity="0.062400000000000004"/>
<circle cx="162" cy="163.0" r="19" fill="#8B5E83" opacity="0.027300000000000005"/>
<path d="M 188 163.0 L 218 163.0" stroke="#8B5E83" stroke-opacity="0.06824999999999999" stroke-width="1.3"/>
<rect x="224" y="148.0" width="116" height="30" rx="6" fill="#8B5E83" opacity="0.195"/>
<path d="M 346 163.0 L 376 163.0" stroke="#8B5E83" stroke-opacity="0.06824999999999999" stroke-width="1.3"/>
<circle cx="398" cy="163.0" r="15" fill="#FBF8F2" stroke="#8B5E83" stroke-opacity="0.0975" stroke-width="1.3"/>
<circle cx="398" cy="163.0" r="5.5" fill="#C9A84C" opacity="0.195"/>
<rect x="100" y="126" width="560" height="54" rx="9" fill="#FBF8F2" fill-opacity="1" stroke="#8B5E83" stroke-opacity="0.0736"/>
<circle cx="152" cy="153.0" r="19" fill="#8B5E83" opacity="0.032200000000000006"/>
<path d="M 178 153.0 L 208 153.0" stroke="#8B5E83" stroke-opacity="0.0805" stroke-width="1.3"/>
<rect x="214" y="138.0" width="116" height="30" rx="6" fill="#8B5E83" opacity="0.23"/>
<path d="M 336 153.0 L 366 153.0" stroke="#8B5E83" stroke-opacity="0.0805" stroke-width="1.3"/>
<circle cx="388" cy="153.0" r="15" fill="#FBF8F2" stroke="#8B5E83" stroke-opacity="0.115" stroke-width="1.3"/>
<circle cx="388" cy="153.0" r="5.5" fill="#C9A84C" opacity="0.23"/>
<rect x="90" y="116" width="560" height="54" rx="9" fill="#FBF8F2" fill-opacity="1" stroke="#8B5E83" stroke-opacity="0.0848"/>
<circle cx="142" cy="143.0" r="19" fill="#8B5E83" opacity="0.03710000000000001"/>
<path d="M 168 143.0 L 198 143.0" stroke="#8B5E83" stroke-opacity="0.09275" stroke-width="1.3"/>
<rect x="204" y="128.0" width="116" height="30" rx="6" fill="#8B5E83" opacity="0.265"/>
<path d="M 326 143.0 L 356 143.0" stroke="#8B5E83" stroke-opacity="0.09275" stroke-width="1.3"/>
<circle cx="378" cy="143.0" r="15" fill="#FBF8F2" stroke="#8B5E83" stroke-opacity="0.1325" stroke-width="1.3"/>
<circle cx="378" cy="143.0" r="5.5" fill="#C9A84C" opacity="0.265"/>
<rect x="80" y="106" width="560" height="54" rx="9" fill="#FBF8F2" fill-opacity="1" stroke="#8B5E83" stroke-opacity="0.09600000000000002"/>
<circle cx="132" cy="133.0" r="19" fill="#8B5E83" opacity="0.04200000000000001"/>
<path d="M 158 133.0 L 188 133.0" stroke="#8B5E83" stroke-opacity="0.10500000000000001" stroke-width="1.3"/>
<rect x="194" y="118.0" width="116" height="30" rx="6" fill="#8B5E83" opacity="0.30000000000000004"/>
<path d="M 316 133.0 L 346 133.0" stroke="#8B5E83" stroke-opacity="0.10500000000000001" stroke-width="1.3"/>
<circle cx="368" cy="133.0" r="15" fill="#FBF8F2" stroke="#8B5E83" stroke-opacity="0.15000000000000002" stroke-width="1.3"/>
<circle cx="368" cy="133.0" r="5.5" fill="#C9A84C" opacity="0.30000000000000004"/>
<rect x="70" y="96" width="560" height="54" rx="9" fill="#FBF8F2" fill-opacity="1" stroke="#8B5E83" stroke-opacity="0.1072"/>
<circle cx="122" cy="123.0" r="19" fill="#8B5E83" opacity="0.046900000000000004"/>
<path d="M 148 123.0 L 178 123.0" stroke="#8B5E83" stroke-opacity="0.11725" stroke-width="1.3"/>
<rect x="184" y="108.0" width="116" height="30" rx="6" fill="#8B5E83" opacity="0.335"/>
<path d="M 306 123.0 L 336 123.0" stroke="#8B5E83" stroke-opacity="0.11725" stroke-width="1.3"/>
<circle cx="358" cy="123.0" r="15" fill="#FBF8F2" stroke="#8B5E83" stroke-opacity="0.1675" stroke-width="1.3"/>
<circle cx="358" cy="123.0" r="5.5" fill="#C9A84C" opacity="0.335"/>
<rect x="60" y="86" width="560" height="54" rx="9" fill="#FBF8F2" fill-opacity="1" stroke="#8B5E83" stroke-opacity="0.1184"/>
<circle cx="112" cy="113.0" r="19" fill="#8B5E83" opacity="0.051800000000000006"/>
<path d="M 138 113.0 L 168 113.0" stroke="#8B5E83" stroke-opacity="0.1295" stroke-width="1.3"/>
<rect x="174" y="98.0" width="116" height="30" rx="6" fill="#8B5E83" opacity="0.37"/>
<path d="M 296 113.0 L 326 113.0" stroke="#8B5E83" stroke-opacity="0.1295" stroke-width="1.3"/>
<circle cx="348" cy="113.0" r="15" fill="#FBF8F2" stroke="#8B5E83" stroke-opacity="0.185" stroke-width="1.3"/>
<circle cx="348" cy="113.0" r="5.5" fill="#C9A84C" opacity="0.37"/>
<rect x="50" y="76" width="560" height="54" rx="9" fill="#FBF8F2" fill-opacity="1" stroke="#8B5E83" stroke-opacity="0.12960000000000002"/>
<circle cx="102" cy="103.0" r="19" fill="#8B5E83" opacity="0.05670000000000001"/>
<path d="M 128 103.0 L 158 103.0" stroke="#8B5E83" stroke-opacity="0.14175" stroke-width="1.3"/>
<rect x="164" y="88.0" width="116" height="30" rx="6" fill="#8B5E83" opacity="0.405"/>
<path d="M 286 103.0 L 316 103.0" stroke="#8B5E83" stroke-opacity="0.14175" stroke-width="1.3"/>
<circle cx="338" cy="103.0" r="15" fill="#FBF8F2" stroke="#8B5E83" stroke-opacity="0.2025" stroke-width="1.3"/>
<circle cx="338" cy="103.0" r="5.5" fill="#C9A84C" opacity="0.405"/>
<rect x="40" y="66" width="560" height="54" rx="9" fill="#FBF8F2" fill-opacity="1" stroke="#8B5E83" stroke-opacity="0.1408"/>
<circle cx="92" cy="93.0" r="19" fill="#8B5E83" opacity="0.061600000000000016"/>
<path d="M 118 93.0 L 148 93.0" stroke="#8B5E83" stroke-opacity="0.154" stroke-width="1.3"/>
<rect x="154" y="78.0" width="116" height="30" rx="6" fill="#8B5E83" opacity="0.44000000000000006"/>
<path d="M 276 93.0 L 306 93.0" stroke="#8B5E83" stroke-opacity="0.154" stroke-width="1.3"/>
<circle cx="328" cy="93.0" r="15" fill="#FBF8F2" stroke="#8B5E83" stroke-opacity="0.22000000000000003" stroke-width="1.3"/>
<circle cx="328" cy="93.0" r="5.5" fill="#C9A84C" opacity="0.44000000000000006"/>
<rect x="30" y="56" width="560" height="54" rx="9" fill="#8B5E83" fill-opacity="0.04" stroke="#8B5E83" stroke-opacity="0.32" stroke-dasharray="5 4"/>
<circle cx="82" cy="83.0" r="19" fill="#8B5E83" opacity="0.14"/>
<text x="82" y="88.0" text-anchor="middle" font-family="Cormorant Garamond, serif" font-size="17" fill="#8B5E83" opacity="1.0">100</text>
<path d="M 108 83.0 L 138 83.0" stroke="#8B5E83" stroke-opacity="0.35" stroke-width="1.3"/>
<rect x="144" y="68.0" width="116" height="30" rx="6" fill="#8B5E83" opacity="1.0"/>
<text x="202" y="89.0" text-anchor="middle" font-family="Cormorant Garamond, serif" font-size="17" fill="#fff" opacity="1.0">$100,000</text>
<path d="M 266 83.0 L 296 83.0" stroke="#8B5E83" stroke-opacity="0.35" stroke-width="1.3"/>
<circle cx="318" cy="83.0" r="15" fill="#FBF8F2" stroke="#8B5E83" stroke-opacity="0.5" stroke-width="1.3"/>
<circle cx="318" cy="83.0" r="5.5" fill="#C9A84C" opacity="1.0"/>
<text x="82" y="128" text-anchor="middle" font-family="Satoshi, sans-serif" font-size="8.5" font-weight="700" letter-spacing="1.5" fill="#7E8E84" opacity="1">WOMEN</text>
<text x="202" y="128" text-anchor="middle" font-family="Satoshi, sans-serif" font-size="8.5" font-weight="700" letter-spacing="1.5" fill="#7E8E84" opacity="1">ONE SPV</text>
<text x="318" y="128" text-anchor="middle" font-family="Satoshi, sans-serif" font-size="8.5" font-weight="700" letter-spacing="1.5" fill="#7E8E84" opacity="1">ONE COMPANY</text>
<path d="M 640 50 L 640 220" stroke="#2F3E34" stroke-opacity="0.14"/>
<text x="684" y="136" text-anchor="start" font-family="Cormorant Garamond, serif" font-size="30" fill="#7E8E84" opacity="1">x 10 a year</text>
<text x="684" y="190" text-anchor="start" font-family="Cormorant Garamond, serif" font-size="36" fill="#2F3E34" opacity="1">$1,000,000</text>
<text x="684" y="212" text-anchor="start" font-family="Satoshi, sans-serif" font-size="9.5" font-weight="700" letter-spacing="1.6" fill="#8B5E83" opacity="1">INTO UTAH COMPANIES</text></svg>