<svg viewBox="0 0 940 450" xmlns="http://www.w3.org/2000/svg" role="img" aria-label="Ten boxes in two columns of five"><text x="30" y="30" text-anchor="start" font-family="Satoshi, sans-serif" font-size="11" font-weight="700" letter-spacing="1.6" fill="#8B5E83" opacity="1">TEN DEALS A YEAR</text>
<rect x="30" y="48" width="420" height="48" rx="9" fill="#8B5E83" fill-opacity="0.035" stroke="#8B5E83" stroke-opacity="0.3" stroke-dasharray="5 4"/>
<circle cx="82" cy="72.0" r="19" fill="#8B5E83" opacity="0.14"/>
<text x="82" y="77.0" text-anchor="middle" font-family="Cormorant Garamond, serif" font-size="17" fill="#8B5E83" opacity="1">100</text>
<path d="M 108 72.0 L 142 72.0" stroke="#8B5E83" stroke-opacity="0.35" stroke-width="1.3"/>
<rect x="148" y="57.0" width="118" height="30" rx="6" fill="#8B5E83" opacity="1"/>
<text x="207" y="78.0" text-anchor="middle" font-family="Cormorant Garamond, serif" font-size="17" fill="#fff" opacity="1">$100,000</text>
<path d="M 272 72.0 L 306 72.0" stroke="#8B5E83" stroke-opacity="0.35" stroke-width="1.3"/>
<circle cx="328" cy="72.0" r="15" fill="#FBF8F2" stroke="#8B5E83" stroke-opacity="0.5" stroke-width="1.3"/>
<circle cx="328" cy="72.0" r="5.5" fill="#C9A84C" opacity="1"/>
<rect x="30" y="110" width="420" height="48" rx="9" fill="#8B5E83" fill-opacity="0.021" stroke="#8B5E83" stroke-opacity="0.18" stroke-dasharray="5 4"/>
<circle cx="82" cy="134.0" r="19" fill="#8B5E83" opacity="0.084"/>
<path d="M 108 134.0 L 142 134.0" stroke="#8B5E83" stroke-opacity="0.21" stroke-width="1.3"/>
<rect x="148" y="119.0" width="118" height="30" rx="6" fill="#8B5E83" opacity="0.6"/>
<path d="M 272 134.0 L 306 134.0" stroke="#8B5E83" stroke-opacity="0.21" stroke-width="1.3"/>
<circle cx="328" cy="134.0" r="15" fill="#FBF8F2" stroke="#8B5E83" stroke-opacity="0.3" stroke-width="1.3"/>
<circle cx="328" cy="134.0" r="5.5" fill="#C9A84C" opacity="0.6"/>
<rect x="30" y="172" width="420" height="48" rx="9" fill="#8B5E83" fill-opacity="0.021" stroke="#8B5E83" stroke-opacity="0.18" stroke-dasharray="5 4"/>
<circle cx="82" cy="196.0" r="19" fill="#8B5E83" opacity="0.084"/>
<path d="M 108 196.0 L 142 196.0" stroke="#8B5E83" stroke-opacity="0.21" stroke-width="1.3"/>
<rect x="148" y="181.0" width="118" height="30" rx="6" fill="#8B5E83" opacity="0.6"/>
<path d="M 272 196.0 L 306 196.0" stroke="#8B5E83" stroke-opacity="0.21" stroke-width="1.3"/>
<circle cx="328" cy="196.0" r="15" fill="#FBF8F2" stroke="#8B5E83" stroke-opacity="0.3" stroke-width="1.3"/>
<circle cx="328" cy="196.0" r="5.5" fill="#C9A84C" opacity="0.6"/>
<rect x="30" y="234" width="420" height="48" rx="9" fill="#8B5E83" fill-opacity="0.021" stroke="#8B5E83" stroke-opacity="0.18" stroke-dasharray="5 4"/>
<circle cx="82" cy="258.0" r="19" fill="#8B5E83" opacity="0.084"/>
<path d="M 108 258.0 L 142 258.0" stroke="#8B5E83" stroke-opacity="0.21" stroke-width="1.3"/>
<rect x="148" y="243.0" width="118" height="30" rx="6" fill="#8B5E83" opacity="0.6"/>
<path d="M 272 258.0 L 306 258.0" stroke="#8B5E83" stroke-opacity="0.21" stroke-width="1.3"/>
<circle cx="328" cy="258.0" r="15" fill="#FBF8F2" stroke="#8B5E83" stroke-opacity="0.3" stroke-width="1.3"/>
<circle cx="328" cy="258.0" r="5.5" fill="#C9A84C" opacity="0.6"/>
<rect x="30" y="296" width="420" height="48" rx="9" fill="#8B5E83" fill-opacity="0.021" stroke="#8B5E83" stroke-opacity="0.18" stroke-dasharray="5 4"/>
<circle cx="82" cy="320.0" r="19" fill="#8B5E83" opacity="0.084"/>
<path d="M 108 320.0 L 142 320.0" stroke="#8B5E83" stroke-opacity="0.21" stroke-width="1.3"/>
<rect x="148" y="305.0" width="118" height="30" rx="6" fill="#8B5E83" opacity="0.6"/>
<path d="M 272 320.0 L 306 320.0" stroke="#8B5E83" stroke-opacity="0.21" stroke-width="1.3"/>
<circle cx="328" cy="320.0" r="15" fill="#FBF8F2" stroke="#8B5E83" stroke-opacity="0.3" stroke-width="1.3"/>
<circle cx="328" cy="320.0" r="5.5" fill="#C9A84C" opacity="0.6"/>
<rect x="482" y="48" width="420" height="48" rx="9" fill="#8B5E83" fill-opacity="0.021" stroke="#8B5E83" stroke-opacity="0.18" stroke-dasharray="5 4"/>
<circle cx="534" cy="72.0" r="19" fill="#8B5E83" opacity="0.084"/>
<path d="M 560 72.0 L 594 72.0" stroke="#8B5E83" stroke-opacity="0.21" stroke-width="1.3"/>
<rect x="600" y="57.0" width="118" height="30" rx="6" fill="#8B5E83" opacity="0.6"/>
<path d="M 724 72.0 L 758 72.0" stroke="#8B5E83" stroke-opacity="0.21" stroke-width="1.3"/>
<circle cx="780" cy="72.0" r="15" fill="#FBF8F2" stroke="#8B5E83" stroke-opacity="0.3" stroke-width="1.3"/>
<circle cx="780" cy="72.0" r="5.5" fill="#C9A84C" opacity="0.6"/>
<rect x="482" y="110" width="420" height="48" rx="9" fill="#8B5E83" fill-opacity="0.021" stroke="#8B5E83" stroke-opacity="0.18" stroke-dasharray="5 4"/>
<circle cx="534" cy="134.0" r="19" fill="#8B5E83" opacity="0.084"/>
<path d="M 560 134.0 L 594 134.0" stroke="#8B5E83" stroke-opacity="0.21" stroke-width="1.3"/>
<rect x="600" y="119.0" width="118" height="30" rx="6" fill="#8B5E83" opacity="0.6"/>
<path d="M 724 134.0 L 758 134.0" stroke="#8B5E83" stroke-opacity="0.21" stroke-width="1.3"/>
<circle cx="780" cy="134.0" r="15" fill="#FBF8F2" stroke="#8B5E83" stroke-opacity="0.3" stroke-width="1.3"/>
<circle cx="780" cy="134.0" r="5.5" fill="#C9A84C" opacity="0.6"/>
<rect x="482" y="172" width="420" height="48" rx="9" fill="#8B5E83" fill-opacity="0.021" stroke="#8B5E83" stroke-opacity="0.18" stroke-dasharray="5 4"/>
<circle cx="534" cy="196.0" r="19" fill="#8B5E83" opacity="0.084"/>
<path d="M 560 196.0 L 594 196.0" stroke="#8B5E83" stroke-opacity="0.21" stroke-width="1.3"/>
<rect x="600" y="181.0" width="118" height="30" rx="6" fill="#8B5E83" opacity="0.6"/>
<path d="M 724 196.0 L 758 196.0" stroke="#8B5E83" stroke-opacity="0.21" stroke-width="1.3"/>
<circle cx="780" cy="196.0" r="15" fill="#FBF8F2" stroke="#8B5E83" stroke-opacity="0.3" stroke-width="1.3"/>
<circle cx="780" cy="196.0" r="5.5" fill="#C9A84C" opacity="0.6"/>
<rect x="482" y="234" width="420" height="48" rx="9" fill="#8B5E83" fill-opacity="0.021" stroke="#8B5E83" stroke-opacity="0.18" stroke-dasharray="5 4"/>
<circle cx="534" cy="258.0" r="19" fill="#8B5E83" opacity="0.084"/>
<path d="M 560 258.0 L 594 258.0" stroke="#8B5E83" stroke-opacity="0.21" stroke-width="1.3"/>
<rect x="600" y="243.0" width="118" height="30" rx="6" fill="#8B5E83" opacity="0.6"/>
<path d="M 724 258.0 L 758 258.0" stroke="#8B5E83" stroke-opacity="0.21" stroke-width="1.3"/>
<circle cx="780" cy="258.0" r="15" fill="#FBF8F2" stroke="#8B5E83" stroke-opacity="0.3" stroke-width="1.3"/>
<circle cx="780" cy="258.0" r="5.5" fill="#C9A84C" opacity="0.6"/>
<rect x="482" y="296" width="420" height="48" rx="9" fill="#8B5E83" fill-opacity="0.021" stroke="#8B5E83" stroke-opacity="0.18" stroke-dasharray="5 4"/>
<circle cx="534" cy="320.0" r="19" fill="#8B5E83" opacity="0.084"/>
<path d="M 560 320.0 L 594 320.0" stroke="#8B5E83" stroke-opacity="0.21" stroke-width="1.3"/>
<rect x="600" y="305.0" width="118" height="30" rx="6" fill="#8B5E83" opacity="0.6"/>
<path d="M 724 320.0 L 758 320.0" stroke="#8B5E83" stroke-opacity="0.21" stroke-width="1.3"/>
<circle cx="780" cy="320.0" r="15" fill="#FBF8F2" stroke="#8B5E83" stroke-opacity="0.3" stroke-width="1.3"/>
<circle cx="780" cy="320.0" r="5.5" fill="#C9A84C" opacity="0.6"/>
<path d="M 30 386 L 902 386" stroke="#2F3E34" stroke-opacity="0.16"/>
<text x="30" y="424" text-anchor="start" font-family="Cormorant Garamond, serif" font-size="30" fill="#2F3E34" opacity="1">$1,000,000 into Utah companies</text></svg>