<svg viewBox="0 0 960 232" xmlns="http://www.w3.org/2000/svg" role="img" aria-label="One deal: one hundred women, one special purpose vehicle of one hundred thousand dollars, one company. Ten deals a year is one million dollars."><rect x="30" y="62" width="620" height="152" rx="14" fill="#8B5E83" fill-opacity="0.035" stroke="#8B5E83" stroke-opacity="0.26"/>
<rect x="46" y="50" width="94" height="24" rx="12" fill="#FBF8F2"/>
<text x="93" y="66" text-anchor="middle" font-family="Satoshi, sans-serif" font-size="10" font-weight="700" letter-spacing="1.7" fill="#8B5E83" opacity="1">ONE DEAL</text>
<circle cx="136.0" cy="140.0" r="1.9" fill="#8B5E83" opacity="0.8"/>
<circle cx="133.4" cy="142.4" r="1.9" fill="#8B5E83" opacity="0.8"/>
<circle cx="136.4" cy="135.0" r="1.9" fill="#8B5E83" opacity="0.8"/>
<circle cx="139.7" cy="144.9" r="1.9" fill="#8B5E83" opacity="0.8"/>
<circle cx="129.0" cy="138.8" r="1.9" fill="#8B5E83" opacity="0.8"/>
<circle cx="142.7" cy="135.7" r="1.9" fill="#8B5E83" opacity="0.8"/>
<circle cx="133.7" cy="148.4" r="1.9" fill="#8B5E83" opacity="0.8"/>
<circle cx="131.7" cy="131.7" r="1.9" fill="#8B5E83" opacity="0.8"/>
<circle cx="145.4" cy="143.4" r="1.9" fill="#8B5E83" opacity="0.8"/>
<circle cx="126.2" cy="144.1" r="1.9" fill="#8B5E83" opacity="0.8"/>
<circle cx="140.8" cy="129.8" r="1.9" fill="#8B5E83" opacity="0.8"/>
<circle cx="139.5" cy="151.2" r="1.9" fill="#8B5E83" opacity="0.8"/>
<circle cx="125.4" cy="133.8" r="1.9" fill="#8B5E83" opacity="0.8"/>
<circle cx="148.5" cy="137.2" r="1.9" fill="#8B5E83" opacity="0.8"/>
<circle cx="128.4" cy="150.9" r="1.9" fill="#8B5E83" opacity="0.8"/>
<circle cx="134.2" cy="126.4" r="1.9" fill="#8B5E83" opacity="0.8"/>
<circle cx="146.9" cy="149.1" r="1.9" fill="#8B5E83" opacity="0.8"/>
<circle cx="121.4" cy="140.6" r="1.9" fill="#8B5E83" opacity="0.8"/>
<circle cx="146.7" cy="129.4" r="1.9" fill="#8B5E83" opacity="0.8"/>
<circle cx="135.3" cy="155.5" r="1.9" fill="#8B5E83" opacity="0.8"/>
<circle cx="125.8" cy="127.8" r="1.9" fill="#8B5E83" opacity="0.8"/>
<circle cx="152.1" cy="142.2" r="1.9" fill="#8B5E83" opacity="0.8"/>
<circle cx="122.3" cy="149.5" r="1.9" fill="#8B5E83" opacity="0.8"/>
<circle cx="139.7" cy="123.4" r="1.9" fill="#8B5E83" opacity="0.8"/>
<circle cx="144.7" cy="155.1" r="1.9" fill="#8B5E83" opacity="0.8"/>
<circle cx="119.1" cy="134.6" r="1.9" fill="#8B5E83" opacity="0.8"/>
<circle cx="152.4" cy="132.4" r="1.9" fill="#8B5E83" opacity="0.8"/>
<circle cx="128.9" cy="157.0" r="1.9" fill="#8B5E83" opacity="0.8"/>
<circle cx="129.6" cy="122.3" r="1.9" fill="#8B5E83" opacity="0.8"/>
<circle cx="152.9" cy="148.9" r="1.9" fill="#8B5E83" opacity="0.8"/>
<circle cx="117.2" cy="145.0" r="1.9" fill="#8B5E83" opacity="0.8"/>
<circle cx="146.7" cy="123.4" r="1.9" fill="#8B5E83" opacity="0.8"/>
<circle cx="139.4" cy="159.8" r="1.9" fill="#8B5E83" opacity="0.8"/>
<circle cx="119.9" cy="127.5" r="1.9" fill="#8B5E83" opacity="0.8"/>
<circle cx="156.6" cy="138.3" r="1.9" fill="#8B5E83" opacity="0.8"/>
<circle cx="121.7" cy="155.4" r="1.9" fill="#8B5E83" opacity="0.8"/>
<circle cx="136.1" cy="118.7" r="1.9" fill="#8B5E83" opacity="0.8"/>
<circle cx="150.5" cy="156.0" r="1.9" fill="#8B5E83" opacity="0.8"/>
<circle cx="114.2" cy="138.0" r="1.9" fill="#8B5E83" opacity="0.8"/>
<circle cx="153.7" cy="126.6" r="1.9" fill="#8B5E83" opacity="0.8"/>
<circle cx="132.0" cy="162.1" r="1.9" fill="#8B5E83" opacity="0.8"/>
<circle cx="123.9" cy="120.8" r="1.9" fill="#8B5E83" opacity="0.8"/>
<circle cx="158.2" cy="146.1" r="1.9" fill="#8B5E83" opacity="0.8"/>
<circle cx="115.3" cy="150.6" r="1.9" fill="#8B5E83" opacity="0.8"/>
<circle cx="144.2" cy="117.9" r="1.9" fill="#8B5E83" opacity="0.8"/>
<circle cx="145.0" cy="162.1" r="1.9" fill="#8B5E83" opacity="0.8"/>
<circle cx="114.2" cy="129.7" r="1.9" fill="#8B5E83" opacity="0.8"/>
<circle cx="159.3" cy="132.8" r="1.9" fill="#8B5E83" opacity="0.8"/>
<circle cx="123.6" cy="161.2" r="1.9" fill="#8B5E83" opacity="0.8"/>
<circle cx="130.8" cy="115.7" r="1.9" fill="#8B5E83" opacity="0.8"/>
<circle cx="156.5" cy="154.5" r="1.9" fill="#8B5E83" opacity="0.8"/>
<circle cx="110.8" cy="143.2" r="1.9" fill="#8B5E83" opacity="0.8"/>
<circle cx="152.6" cy="120.5" r="1.9" fill="#8B5E83" opacity="0.8"/>
<circle cx="137.0" cy="165.8" r="1.9" fill="#8B5E83" opacity="0.8"/>
<circle cx="117.7" cy="121.4" r="1.9" fill="#8B5E83" opacity="0.8"/>
<circle cx="162.3" cy="141.3" r="1.9" fill="#8B5E83" opacity="0.8"/>
<circle cx="115.5" cy="156.9" r="1.9" fill="#8B5E83" opacity="0.8"/>
<circle cx="139.7" cy="113.5" r="1.9" fill="#8B5E83" opacity="0.8"/>
<circle cx="151.3" cy="162.3" r="1.9" fill="#8B5E83" opacity="0.8"/>
<circle cx="109.4" cy="133.9" r="1.9" fill="#8B5E83" opacity="0.8"/>
<circle cx="159.9" cy="126.4" r="1.9" fill="#8B5E83" opacity="0.8"/>
<circle cx="127.5" cy="166.4" r="1.9" fill="#8B5E83" opacity="0.8"/>
<circle cx="124.4" cy="114.6" r="1.9" fill="#8B5E83" opacity="0.8"/>
<circle cx="161.9" cy="151.0" r="1.9" fill="#8B5E83" opacity="0.8"/>
<circle cx="109.2" cy="149.5" r="1.9" fill="#8B5E83" opacity="0.8"/>
<circle cx="149.4" cy="114.7" r="1.9" fill="#8B5E83" opacity="0.8"/>
<circle cx="143.2" cy="167.9" r="1.9" fill="#8B5E83" opacity="0.8"/>
<circle cx="111.6" cy="124.2" r="1.9" fill="#8B5E83" opacity="0.8"/>
<circle cx="164.9" cy="135.2" r="1.9" fill="#8B5E83" opacity="0.8"/>
<circle cx="117.9" cy="163.2" r="1.9" fill="#8B5E83" opacity="0.8"/>
<circle cx="133.7" cy="110.4" r="1.9" fill="#8B5E83" opacity="0.8"/>
<circle cx="157.9" cy="160.4" r="1.9" fill="#8B5E83" opacity="0.8"/>
<circle cx="105.9" cy="139.7" r="1.9" fill="#8B5E83" opacity="0.8"/>
<circle cx="158.5" cy="119.7" r="1.9" fill="#8B5E83" opacity="0.8"/>
<circle cx="133.1" cy="170.4" r="1.9" fill="#8B5E83" opacity="0.8"/>
<circle cx="117.5" cy="115.4" r="1.9" fill="#8B5E83" opacity="0.8"/>
<circle cx="166.4" cy="145.7" r="1.9" fill="#8B5E83" opacity="0.8"/>
<circle cx="109.6" cy="156.5" r="1.9" fill="#8B5E83" opacity="0.8"/>
<circle cx="144.4" cy="109.8" r="1.9" fill="#8B5E83" opacity="0.8"/>
<circle cx="150.3" cy="168.1" r="1.9" fill="#8B5E83" opacity="0.8"/>
<circle cx="106.3" cy="128.8" r="1.9" fill="#8B5E83" opacity="0.8"/>
<circle cx="165.6" cy="128.1" r="1.9" fill="#8B5E83" opacity="0.8"/>
<circle cx="122.1" cy="169.0" r="1.9" fill="#8B5E83" opacity="0.8"/>
<circle cx="126.6" cy="109.1" r="1.9" fill="#8B5E83" opacity="0.8"/>
<circle cx="164.0" cy="156.6" r="1.9" fill="#8B5E83" opacity="0.8"/>
<circle cx="104.0" cy="146.8" r="1.9" fill="#8B5E83" opacity="0.8"/>
<circle cx="155.2" cy="113.2" r="1.9" fill="#8B5E83" opacity="0.8"/>
<circle cx="140.0" cy="172.9" r="1.9" fill="#8B5E83" opacity="0.8"/>
<circle cx="110.7" cy="118.3" r="1.9" fill="#8B5E83" opacity="0.8"/>
<circle cx="169.5" cy="138.9" r="1.9" fill="#8B5E83" opacity="0.8"/>
<circle cx="111.9" cy="163.6" r="1.9" fill="#8B5E83" opacity="0.8"/>
<circle cx="137.9" cy="106.2" r="1.9" fill="#8B5E83" opacity="0.8"/>
<circle cx="157.6" cy="166.3" r="1.9" fill="#8B5E83" opacity="0.8"/>
<circle cx="102.1" cy="135.1" r="1.9" fill="#8B5E83" opacity="0.8"/>
<circle cx="164.4" cy="120.6" r="1.9" fill="#8B5E83" opacity="0.8"/>
<circle cx="128.1" cy="173.7" r="1.9" fill="#8B5E83" opacity="0.8"/>
<circle cx="119.0" cy="109.7" r="1.9" fill="#8B5E83" opacity="0.8"/>
<circle cx="169.2" cy="150.9" r="1.9" fill="#8B5E83" opacity="0.8"/>
<circle cx="104.0" cy="154.5" r="1.9" fill="#8B5E83" opacity="0.8"/>
<circle cx="149.9" cy="107.5" r="1.9" fill="#8B5E83" opacity="0.8"/>
<text x="136" y="196" text-anchor="middle" font-family="Satoshi, sans-serif" font-size="9.5" font-weight="700" letter-spacing="1.5" fill="#7E8E84" opacity="1">100 WOMEN</text>
<path d="M 186 140 L 250 140" stroke="#8B5E83" stroke-opacity="0.3" stroke-width="1.2"/>
<rect x="256" y="114" width="168" height="52" rx="9" fill="#6E4568"/>
<text x="340" y="149" text-anchor="middle" font-family="Cormorant Garamond, serif" font-size="26" font-style="normal" fill="#fff" opacity="1">$100,000</text>
<text x="340" y="196" text-anchor="middle" font-family="Satoshi, sans-serif" font-size="9.5" font-weight="700" letter-spacing="1.5" fill="#7E8E84" opacity="1">ONE SPV</text>
<path d="M 430 140 L 494 140" stroke="#8B5E83" stroke-opacity="0.3" stroke-width="1.2"/>
<circle cx="544" cy="140" r="40" fill="#FBF8F2" stroke="#8B5E83" stroke-opacity="0.45" stroke-width="1.4"/>
<circle cx="544" cy="140" r="15" fill="#C9A84C"/>
<text x="544" y="196" text-anchor="middle" font-family="Satoshi, sans-serif" font-size="9.5" font-weight="700" letter-spacing="1.5" fill="#7E8E84" opacity="1">ONE COMPANY</text>
<text x="706" y="128" text-anchor="start" font-family="Cormorant Garamond, serif" font-size="44" font-style="normal" fill="#7E8E84" opacity="1">x 10</text>
<text x="706" y="152" text-anchor="start" font-family="Satoshi, sans-serif" font-size="10" font-weight="700" letter-spacing="1.6" fill="#7E8E84" opacity="1">DEALS A YEAR</text>
<text x="706" y="196" text-anchor="start" font-family="Cormorant Garamond, serif" font-size="36" font-style="normal" fill="#2F3E34" opacity="1">$1,000,000</text></svg>