<svg viewBox="0 0 1000 260" xmlns="http://www.w3.org/2000/svg" role="img" aria-label="The deal box stacked ten deep, receding up and to the right"><text x="30" y="32" text-anchor="start" font-family="Satoshi, sans-serif" font-size="11" font-weight="700" letter-spacing="1.6" fill="#8B5E83" opacity="1">ONE DEAL</text>
<rect x="120" y="60" width="560" height="54" rx="9" fill="#FBF8F2" fill-opacity="1" stroke="#8B5E83" stroke-opacity="0.0512"/>
<circle cx="172" cy="87.0" r="19" fill="#8B5E83" opacity="0.022400000000000003"/>
<path d="M 198 87.0 L 228 87.0" stroke="#8B5E83" stroke-opacity="0.055999999999999994" stroke-width="1.3"/>
<rect x="234" y="72.0" width="116" height="30" rx="6" fill="#8B5E83" opacity="0.16"/>
<path d="M 356 87.0 L 386 87.0" stroke="#8B5E83" stroke-opacity="0.055999999999999994" stroke-width="1.3"/>
<circle cx="408" cy="87.0" r="15" fill="#FBF8F2" stroke="#8B5E83" stroke-opacity="0.08" stroke-width="1.3"/>
<circle cx="408" cy="87.0" r="5.5" fill="#C9A84C" opacity="0.16"/>
<rect x="110" y="70" width="560" height="54" rx="9" fill="#FBF8F2" fill-opacity="1" stroke="#8B5E83" stroke-opacity="0.062400000000000004"/>
<circle cx="162" cy="97.0" r="19" fill="#8B5E83" opacity="0.027300000000000005"/>
<path d="M 188 97.0 L 218 97.0" stroke="#8B5E83" stroke-opacity="0.06824999999999999" stroke-width="1.3"/>
<rect x="224" y="82.0" width="116" height="30" rx="6" fill="#8B5E83" opacity="0.195"/>
<path d="M 346 97.0 L 376 97.0" stroke="#8B5E83" stroke-opacity="0.06824999999999999" stroke-width="1.3"/>
<circle cx="398" cy="97.0" r="15" fill="#FBF8F2" stroke="#8B5E83" stroke-opacity="0.0975" stroke-width="1.3"/>
<circle cx="398" cy="97.0" r="5.5" fill="#C9A84C" opacity="0.195"/>
<rect x="100" y="80" width="560" height="54" rx="9" fill="#FBF8F2" fill-opacity="1" stroke="#8B5E83" stroke-opacity="0.0736"/>
<circle cx="152" cy="107.0" r="19" fill="#8B5E83" opacity="0.032200000000000006"/>
<path d="M 178 107.0 L 208 107.0" stroke="#8B5E83" stroke-opacity="0.0805" stroke-width="1.3"/>
<rect x="214" y="92.0" width="116" height="30" rx="6" fill="#8B5E83" opacity="0.23"/>
<path d="M 336 107.0 L 366 107.0" stroke="#8B5E83" stroke-opacity="0.0805" stroke-width="1.3"/>
<circle cx="388" cy="107.0" r="15" fill="#FBF8F2" stroke="#8B5E83" stroke-opacity="0.115" stroke-width="1.3"/>
<circle cx="388" cy="107.0" r="5.5" fill="#C9A84C" opacity="0.23"/>
<rect x="90" y="90" width="560" height="54" rx="9" fill="#FBF8F2" fill-opacity="1" stroke="#8B5E83" stroke-opacity="0.0848"/>
<circle cx="142" cy="117.0" r="19" fill="#8B5E83" opacity="0.03710000000000001"/>
<path d="M 168 117.0 L 198 117.0" stroke="#8B5E83" stroke-opacity="0.09275" stroke-width="1.3"/>
<rect x="204" y="102.0" width="116" height="30" rx="6" fill="#8B5E83" opacity="0.265"/>
<path d="M 326 117.0 L 356 117.0" stroke="#8B5E83" stroke-opacity="0.09275" stroke-width="1.3"/>
<circle cx="378" cy="117.0" r="15" fill="#FBF8F2" stroke="#8B5E83" stroke-opacity="0.1325" stroke-width="1.3"/>
<circle cx="378" cy="117.0" r="5.5" fill="#C9A84C" opacity="0.265"/>
<rect x="80" y="100" width="560" height="54" rx="9" fill="#FBF8F2" fill-opacity="1" stroke="#8B5E83" stroke-opacity="0.09600000000000002"/>
<circle cx="132" cy="127.0" r="19" fill="#8B5E83" opacity="0.04200000000000001"/>
<path d="M 158 127.0 L 188 127.0" stroke="#8B5E83" stroke-opacity="0.10500000000000001" stroke-width="1.3"/>
<rect x="194" y="112.0" width="116" height="30" rx="6" fill="#8B5E83" opacity="0.30000000000000004"/>
<path d="M 316 127.0 L 346 127.0" stroke="#8B5E83" stroke-opacity="0.10500000000000001" stroke-width="1.3"/>
<circle cx="368" cy="127.0" r="15" fill="#FBF8F2" stroke="#8B5E83" stroke-opacity="0.15000000000000002" stroke-width="1.3"/>
<circle cx="368" cy="127.0" r="5.5" fill="#C9A84C" opacity="0.30000000000000004"/>
<rect x="70" y="110" width="560" height="54" rx="9" fill="#FBF8F2" fill-opacity="1" stroke="#8B5E83" stroke-opacity="0.1072"/>
<circle cx="122" cy="137.0" r="19" fill="#8B5E83" opacity="0.046900000000000004"/>
<path d="M 148 137.0 L 178 137.0" stroke="#8B5E83" stroke-opacity="0.11725" stroke-width="1.3"/>
<rect x="184" y="122.0" width="116" height="30" rx="6" fill="#8B5E83" opacity="0.335"/>
<path d="M 306 137.0 L 336 137.0" stroke="#8B5E83" stroke-opacity="0.11725" stroke-width="1.3"/>
<circle cx="358" cy="137.0" r="15" fill="#FBF8F2" stroke="#8B5E83" stroke-opacity="0.1675" stroke-width="1.3"/>
<circle cx="358" cy="137.0" r="5.5" fill="#C9A84C" opacity="0.335"/>
<rect x="60" y="120" width="560" height="54" rx="9" fill="#FBF8F2" fill-opacity="1" stroke="#8B5E83" stroke-opacity="0.1184"/>
<circle cx="112" cy="147.0" r="19" fill="#8B5E83" opacity="0.051800000000000006"/>
<path d="M 138 147.0 L 168 147.0" stroke="#8B5E83" stroke-opacity="0.1295" stroke-width="1.3"/>
<rect x="174" y="132.0" width="116" height="30" rx="6" fill="#8B5E83" opacity="0.37"/>
<path d="M 296 147.0 L 326 147.0" stroke="#8B5E83" stroke-opacity="0.1295" stroke-width="1.3"/>
<circle cx="348" cy="147.0" r="15" fill="#FBF8F2" stroke="#8B5E83" stroke-opacity="0.185" stroke-width="1.3"/>
<circle cx="348" cy="147.0" r="5.5" fill="#C9A84C" opacity="0.37"/>
<rect x="50" y="130" width="560" height="54" rx="9" fill="#FBF8F2" fill-opacity="1" stroke="#8B5E83" stroke-opacity="0.12960000000000002"/>
<circle cx="102" cy="157.0" r="19" fill="#8B5E83" opacity="0.05670000000000001"/>
<path d="M 128 157.0 L 158 157.0" stroke="#8B5E83" stroke-opacity="0.14175" stroke-width="1.3"/>
<rect x="164" y="142.0" width="116" height="30" rx="6" fill="#8B5E83" opacity="0.405"/>
<path d="M 286 157.0 L 316 157.0" stroke="#8B5E83" stroke-opacity="0.14175" stroke-width="1.3"/>
<circle cx="338" cy="157.0" r="15" fill="#FBF8F2" stroke="#8B5E83" stroke-opacity="0.2025" stroke-width="1.3"/>
<circle cx="338" cy="157.0" r="5.5" fill="#C9A84C" opacity="0.405"/>
<rect x="40" y="140" width="560" height="54" rx="9" fill="#FBF8F2" fill-opacity="1" stroke="#8B5E83" stroke-opacity="0.1408"/>
<circle cx="92" cy="167.0" r="19" fill="#8B5E83" opacity="0.061600000000000016"/>
<path d="M 118 167.0 L 148 167.0" stroke="#8B5E83" stroke-opacity="0.154" stroke-width="1.3"/>
<rect x="154" y="152.0" width="116" height="30" rx="6" fill="#8B5E83" opacity="0.44000000000000006"/>
<path d="M 276 167.0 L 306 167.0" stroke="#8B5E83" stroke-opacity="0.154" stroke-width="1.3"/>
<circle cx="328" cy="167.0" r="15" fill="#FBF8F2" stroke="#8B5E83" stroke-opacity="0.22000000000000003" stroke-width="1.3"/>
<circle cx="328" cy="167.0" r="5.5" fill="#C9A84C" opacity="0.44000000000000006"/>
<rect x="30" y="150" width="560" height="54" rx="9" fill="#8B5E83" fill-opacity="0.04" stroke="#8B5E83" stroke-opacity="0.32" stroke-dasharray="5 4"/>
<circle cx="82" cy="177.0" r="19" fill="#8B5E83" opacity="0.14"/>
<text x="82" y="182.0" text-anchor="middle" font-family="Cormorant Garamond, serif" font-size="17" fill="#8B5E83" opacity="1.0">100</text>
<path d="M 108 177.0 L 138 177.0" stroke="#8B5E83" stroke-opacity="0.35" stroke-width="1.3"/>
<rect x="144" y="162.0" width="116" height="30" rx="6" fill="#8B5E83" opacity="1.0"/>
<text x="202" y="183.0" text-anchor="middle" font-family="Cormorant Garamond, serif" font-size="17" fill="#fff" opacity="1.0">$100,000</text>
<path d="M 266 177.0 L 296 177.0" stroke="#8B5E83" stroke-opacity="0.35" stroke-width="1.3"/>
<circle cx="318" cy="177.0" r="15" fill="#FBF8F2" stroke="#8B5E83" stroke-opacity="0.5" stroke-width="1.3"/>
<circle cx="318" cy="177.0" r="5.5" fill="#C9A84C" opacity="1.0"/>
<text x="82" y="222" text-anchor="middle" font-family="Satoshi, sans-serif" font-size="8.5" font-weight="700" letter-spacing="1.5" fill="#7E8E84" opacity="1">WOMEN</text>
<text x="202" y="222" text-anchor="middle" font-family="Satoshi, sans-serif" font-size="8.5" font-weight="700" letter-spacing="1.5" fill="#7E8E84" opacity="1">ONE SPV</text>
<text x="318" y="222" text-anchor="middle" font-family="Satoshi, sans-serif" font-size="8.5" font-weight="700" letter-spacing="1.5" fill="#7E8E84" opacity="1">ONE COMPANY</text>
<path d="M 640 60 L 640 232" stroke="#2F3E34" stroke-opacity="0.14"/>
<text x="684" y="146" text-anchor="start" font-family="Cormorant Garamond, serif" font-size="30" fill="#7E8E84" opacity="1">x 10 a year</text>
<text x="684" y="200" text-anchor="start" font-family="Cormorant Garamond, serif" font-size="36" fill="#2F3E34" opacity="1">$1,000,000</text>
<text x="684" y="222" text-anchor="start" font-family="Satoshi, sans-serif" font-size="9.5" font-weight="700" letter-spacing="1.6" fill="#8B5E83" opacity="1">INTO UTAH COMPANIES</text></svg>