<svg viewBox="0 0 980 470" xmlns="http://www.w3.org/2000/svg" role="img" aria-label="One hundred women feeding ten separate special purpose vehicles, each into one company">
<circle cx="40" cy="120" r="3" fill="#8B5E83" opacity="0.8"/>
<circle cx="55" cy="120" r="3" fill="#8B5E83" opacity="0.8"/>
<circle cx="70" cy="120" r="3" fill="#8B5E83" opacity="0.8"/>
<circle cx="85" cy="120" r="3" fill="#8B5E83" opacity="0.8"/>
<circle cx="100" cy="120" r="3" fill="#8B5E83" opacity="0.8"/>
<circle cx="115" cy="120" r="3" fill="#8B5E83" opacity="0.8"/>
<circle cx="130" cy="120" r="3" fill="#8B5E83" opacity="0.8"/>
<circle cx="145" cy="120" r="3" fill="#8B5E83" opacity="0.8"/>
<circle cx="160" cy="120" r="3" fill="#8B5E83" opacity="0.8"/>
<circle cx="175" cy="120" r="3" fill="#8B5E83" opacity="0.8"/>
<circle cx="40" cy="135" r="3" fill="#8B5E83" opacity="0.8"/>
<circle cx="55" cy="135" r="3" fill="#8B5E83" opacity="0.8"/>
<circle cx="70" cy="135" r="3" fill="#8B5E83" opacity="0.8"/>
<circle cx="85" cy="135" r="3" fill="#8B5E83" opacity="0.8"/>
<circle cx="100" cy="135" r="3" fill="#8B5E83" opacity="0.8"/>
<circle cx="115" cy="135" r="3" fill="#8B5E83" opacity="0.8"/>
<circle cx="130" cy="135" r="3" fill="#8B5E83" opacity="0.8"/>
<circle cx="145" cy="135" r="3" fill="#8B5E83" opacity="0.8"/>
<circle cx="160" cy="135" r="3" fill="#8B5E83" opacity="0.8"/>
<circle cx="175" cy="135" r="3" fill="#8B5E83" opacity="0.8"/>
<circle cx="40" cy="150" r="3" fill="#8B5E83" opacity="0.8"/>
<circle cx="55" cy="150" r="3" fill="#8B5E83" opacity="0.8"/>
<circle cx="70" cy="150" r="3" fill="#8B5E83" opacity="0.8"/>
<circle cx="85" cy="150" r="3" fill="#8B5E83" opacity="0.8"/>
<circle cx="100" cy="150" r="3" fill="#8B5E83" opacity="0.8"/>
<circle cx="115" cy="150" r="3" fill="#8B5E83" opacity="0.8"/>
<circle cx="130" cy="150" r="3" fill="#8B5E83" opacity="0.8"/>
<circle cx="145" cy="150" r="3" fill="#8B5E83" opacity="0.8"/>
<circle cx="160" cy="150" r="3" fill="#8B5E83" opacity="0.8"/>
<circle cx="175" cy="150" r="3" fill="#8B5E83" opacity="0.8"/>
<circle cx="40" cy="165" r="3" fill="#8B5E83" opacity="0.8"/>
<circle cx="55" cy="165" r="3" fill="#8B5E83" opacity="0.8"/>
<circle cx="70" cy="165" r="3" fill="#8B5E83" opacity="0.8"/>
<circle cx="85" cy="165" r="3" fill="#8B5E83" opacity="0.8"/>
<circle cx="100" cy="165" r="3" fill="#8B5E83" opacity="0.8"/>
<circle cx="115" cy="165" r="3" fill="#8B5E83" opacity="0.8"/>
<circle cx="130" cy="165" r="3" fill="#8B5E83" opacity="0.8"/>
<circle cx="145" cy="165" r="3" fill="#8B5E83" opacity="0.8"/>
<circle cx="160" cy="165" r="3" fill="#8B5E83" opacity="0.8"/>
<circle cx="175" cy="165" r="3" fill="#8B5E83" opacity="0.8"/>
<circle cx="40" cy="180" r="3" fill="#8B5E83" opacity="0.8"/>
<circle cx="55" cy="180" r="3" fill="#8B5E83" opacity="0.8"/>
<circle cx="70" cy="180" r="3" fill="#8B5E83" opacity="0.8"/>
<circle cx="85" cy="180" r="3" fill="#8B5E83" opacity="0.8"/>
<circle cx="100" cy="180" r="3" fill="#8B5E83" opacity="0.8"/>
<circle cx="115" cy="180" r="3" fill="#8B5E83" opacity="0.8"/>
<circle cx="130" cy="180" r="3" fill="#8B5E83" opacity="0.8"/>
<circle cx="145" cy="180" r="3" fill="#8B5E83" opacity="0.8"/>
<circle cx="160" cy="180" r="3" fill="#8B5E83" opacity="0.8"/>
<circle cx="175" cy="180" r="3" fill="#8B5E83" opacity="0.8"/>
<circle cx="40" cy="195" r="3" fill="#8B5E83" opacity="0.8"/>
<circle cx="55" cy="195" r="3" fill="#8B5E83" opacity="0.8"/>
<circle cx="70" cy="195" r="3" fill="#8B5E83" opacity="0.8"/>
<circle cx="85" cy="195" r="3" fill="#8B5E83" opacity="0.8"/>
<circle cx="100" cy="195" r="3" fill="#8B5E83" opacity="0.8"/>
<circle cx="115" cy="195" r="3" fill="#8B5E83" opacity="0.8"/>
<circle cx="130" cy="195" r="3" fill="#8B5E83" opacity="0.8"/>
<circle cx="145" cy="195" r="3" fill="#8B5E83" opacity="0.8"/>
<circle cx="160" cy="195" r="3" fill="#8B5E83" opacity="0.8"/>
<circle cx="175" cy="195" r="3" fill="#8B5E83" opacity="0.8"/>
<circle cx="40" cy="210" r="3" fill="#8B5E83" opacity="0.8"/>
<circle cx="55" cy="210" r="3" fill="#8B5E83" opacity="0.8"/>
<circle cx="70" cy="210" r="3" fill="#8B5E83" opacity="0.8"/>
<circle cx="85" cy="210" r="3" fill="#8B5E83" opacity="0.8"/>
<circle cx="100" cy="210" r="3" fill="#8B5E83" opacity="0.8"/>
<circle cx="115" cy="210" r="3" fill="#8B5E83" opacity="0.8"/>
<circle cx="130" cy="210" r="3" fill="#8B5E83" opacity="0.8"/>
<circle cx="145" cy="210" r="3" fill="#8B5E83" opacity="0.8"/>
<circle cx="160" cy="210" r="3" fill="#8B5E83" opacity="0.8"/>
<circle cx="175" cy="210" r="3" fill="#8B5E83" opacity="0.8"/>
<circle cx="40" cy="225" r="3" fill="#8B5E83" opacity="0.8"/>
<circle cx="55" cy="225" r="3" fill="#8B5E83" opacity="0.8"/>
<circle cx="70" cy="225" r="3" fill="#8B5E83" opacity="0.8"/>
<circle cx="85" cy="225" r="3" fill="#8B5E83" opacity="0.8"/>
<circle cx="100" cy="225" r="3" fill="#8B5E83" opacity="0.8"/>
<circle cx="115" cy="225" r="3" fill="#8B5E83" opacity="0.8"/>
<circle cx="130" cy="225" r="3" fill="#8B5E83" opacity="0.8"/>
<circle cx="145" cy="225" r="3" fill="#8B5E83" opacity="0.8"/>
<circle cx="160" cy="225" r="3" fill="#8B5E83" opacity="0.8"/>
<circle cx="175" cy="225" r="3" fill="#8B5E83" opacity="0.8"/>
<circle cx="40" cy="240" r="3" fill="#8B5E83" opacity="0.8"/>
<circle cx="55" cy="240" r="3" fill="#8B5E83" opacity="0.8"/>
<circle cx="70" cy="240" r="3" fill="#8B5E83" opacity="0.8"/>
<circle cx="85" cy="240" r="3" fill="#8B5E83" opacity="0.8"/>
<circle cx="100" cy="240" r="3" fill="#8B5E83" opacity="0.8"/>
<circle cx="115" cy="240" r="3" fill="#8B5E83" opacity="0.8"/>
<circle cx="130" cy="240" r="3" fill="#8B5E83" opacity="0.8"/>
<circle cx="145" cy="240" r="3" fill="#8B5E83" opacity="0.8"/>
<circle cx="160" cy="240" r="3" fill="#8B5E83" opacity="0.8"/>
<circle cx="175" cy="240" r="3" fill="#8B5E83" opacity="0.8"/>
<circle cx="40" cy="255" r="3" fill="#8B5E83" opacity="0.8"/>
<circle cx="55" cy="255" r="3" fill="#8B5E83" opacity="0.8"/>
<circle cx="70" cy="255" r="3" fill="#8B5E83" opacity="0.8"/>
<circle cx="85" cy="255" r="3" fill="#8B5E83" opacity="0.8"/>
<circle cx="100" cy="255" r="3" fill="#8B5E83" opacity="0.8"/>
<circle cx="115" cy="255" r="3" fill="#8B5E83" opacity="0.8"/>
<circle cx="130" cy="255" r="3" fill="#8B5E83" opacity="0.8"/>
<circle cx="145" cy="255" r="3" fill="#8B5E83" opacity="0.8"/>
<circle cx="160" cy="255" r="3" fill="#8B5E83" opacity="0.8"/>
<circle cx="175" cy="255" r="3" fill="#8B5E83" opacity="0.8"/>
<text x="40" y="104" text-anchor="start" font-family="Satoshi, sans-serif" font-size="11" font-weight="700" letter-spacing="2" fill="#8B5E83">100 WOMEN</text>
<text x="40" y="296" text-anchor="start" font-family="Cormorant Garamond, serif" font-size="18" font-style="normal" fill="#7E8E84">$1,000 each, into each deal</text>
<path d="M 200 190 C 300 190, 380 58, 470 58" fill="none" stroke="#8B5E83" stroke-opacity="0.22" stroke-width="1.5"/>
<rect x="470" y="45" width="128" height="26" rx="6" fill="#8B5E83" opacity="0.92"/>
<text x="534" y="63" text-anchor="middle" font-family="Cormorant Garamond, serif" font-size="15" fill="#fff">$100,000</text>
<path d="M 598 58 L 648 58" stroke="#8B5E83" stroke-opacity="0.3" stroke-width="1.5"/>
<circle cx="666" cy="58" r="13" fill="#FBF8F2" stroke="#8B5E83" stroke-opacity="0.5" stroke-width="1.4"/>
<circle cx="666" cy="58" r="4.5" fill="#C9A84C"/>
<path d="M 200 190 C 300 190, 380 98, 470 98" fill="none" stroke="#8B5E83" stroke-opacity="0.22" stroke-width="1.5"/>
<rect x="470" y="85" width="128" height="26" rx="6" fill="#8B5E83" opacity="0.92"/>
<text x="534" y="103" text-anchor="middle" font-family="Cormorant Garamond, serif" font-size="15" fill="#fff">$100,000</text>
<path d="M 598 98 L 648 98" stroke="#8B5E83" stroke-opacity="0.3" stroke-width="1.5"/>
<circle cx="666" cy="98" r="13" fill="#FBF8F2" stroke="#8B5E83" stroke-opacity="0.5" stroke-width="1.4"/>
<circle cx="666" cy="98" r="4.5" fill="#C9A84C"/>
<path d="M 200 190 C 300 190, 380 138, 470 138" fill="none" stroke="#8B5E83" stroke-opacity="0.22" stroke-width="1.5"/>
<rect x="470" y="125" width="128" height="26" rx="6" fill="#8B5E83" opacity="0.92"/>
<text x="534" y="143" text-anchor="middle" font-family="Cormorant Garamond, serif" font-size="15" fill="#fff">$100,000</text>
<path d="M 598 138 L 648 138" stroke="#8B5E83" stroke-opacity="0.3" stroke-width="1.5"/>
<circle cx="666" cy="138" r="13" fill="#FBF8F2" stroke="#8B5E83" stroke-opacity="0.5" stroke-width="1.4"/>
<circle cx="666" cy="138" r="4.5" fill="#C9A84C"/>
<path d="M 200 190 C 300 190, 380 178, 470 178" fill="none" stroke="#8B5E83" stroke-opacity="0.22" stroke-width="1.5"/>
<rect x="470" y="165" width="128" height="26" rx="6" fill="#8B5E83" opacity="0.92"/>
<text x="534" y="183" text-anchor="middle" font-family="Cormorant Garamond, serif" font-size="15" fill="#fff">$100,000</text>
<path d="M 598 178 L 648 178" stroke="#8B5E83" stroke-opacity="0.3" stroke-width="1.5"/>
<circle cx="666" cy="178" r="13" fill="#FBF8F2" stroke="#8B5E83" stroke-opacity="0.5" stroke-width="1.4"/>
<circle cx="666" cy="178" r="4.5" fill="#C9A84C"/>
<path d="M 200 190 C 300 190, 380 218, 470 218" fill="none" stroke="#8B5E83" stroke-opacity="0.22" stroke-width="1.5"/>
<rect x="470" y="205" width="128" height="26" rx="6" fill="#8B5E83" opacity="0.92"/>
<text x="534" y="223" text-anchor="middle" font-family="Cormorant Garamond, serif" font-size="15" fill="#fff">$100,000</text>
<path d="M 598 218 L 648 218" stroke="#8B5E83" stroke-opacity="0.3" stroke-width="1.5"/>
<circle cx="666" cy="218" r="13" fill="#FBF8F2" stroke="#8B5E83" stroke-opacity="0.5" stroke-width="1.4"/>
<circle cx="666" cy="218" r="4.5" fill="#C9A84C"/>
<path d="M 200 190 C 300 190, 380 258, 470 258" fill="none" stroke="#8B5E83" stroke-opacity="0.22" stroke-width="1.5"/>
<rect x="470" y="245" width="128" height="26" rx="6" fill="#8B5E83" opacity="0.92"/>
<text x="534" y="263" text-anchor="middle" font-family="Cormorant Garamond, serif" font-size="15" fill="#fff">$100,000</text>
<path d="M 598 258 L 648 258" stroke="#8B5E83" stroke-opacity="0.3" stroke-width="1.5"/>
<circle cx="666" cy="258" r="13" fill="#FBF8F2" stroke="#8B5E83" stroke-opacity="0.5" stroke-width="1.4"/>
<circle cx="666" cy="258" r="4.5" fill="#C9A84C"/>
<path d="M 200 190 C 300 190, 380 298, 470 298" fill="none" stroke="#8B5E83" stroke-opacity="0.22" stroke-width="1.5"/>
<rect x="470" y="285" width="128" height="26" rx="6" fill="#8B5E83" opacity="0.92"/>
<text x="534" y="303" text-anchor="middle" font-family="Cormorant Garamond, serif" font-size="15" fill="#fff">$100,000</text>
<path d="M 598 298 L 648 298" stroke="#8B5E83" stroke-opacity="0.3" stroke-width="1.5"/>
<circle cx="666" cy="298" r="13" fill="#FBF8F2" stroke="#8B5E83" stroke-opacity="0.5" stroke-width="1.4"/>
<circle cx="666" cy="298" r="4.5" fill="#C9A84C"/>
<path d="M 200 190 C 300 190, 380 338, 470 338" fill="none" stroke="#8B5E83" stroke-opacity="0.22" stroke-width="1.5"/>
<rect x="470" y="325" width="128" height="26" rx="6" fill="#8B5E83" opacity="0.92"/>
<text x="534" y="343" text-anchor="middle" font-family="Cormorant Garamond, serif" font-size="15" fill="#fff">$100,000</text>
<path d="M 598 338 L 648 338" stroke="#8B5E83" stroke-opacity="0.3" stroke-width="1.5"/>
<circle cx="666" cy="338" r="13" fill="#FBF8F2" stroke="#8B5E83" stroke-opacity="0.5" stroke-width="1.4"/>
<circle cx="666" cy="338" r="4.5" fill="#C9A84C"/>
<path d="M 200 190 C 300 190, 380 378, 470 378" fill="none" stroke="#8B5E83" stroke-opacity="0.22" stroke-width="1.5"/>
<rect x="470" y="365" width="128" height="26" rx="6" fill="#8B5E83" opacity="0.92"/>
<text x="534" y="383" text-anchor="middle" font-family="Cormorant Garamond, serif" font-size="15" fill="#fff">$100,000</text>
<path d="M 598 378 L 648 378" stroke="#8B5E83" stroke-opacity="0.3" stroke-width="1.5"/>
<circle cx="666" cy="378" r="13" fill="#FBF8F2" stroke="#8B5E83" stroke-opacity="0.5" stroke-width="1.4"/>
<circle cx="666" cy="378" r="4.5" fill="#C9A84C"/>
<path d="M 200 190 C 300 190, 380 418, 470 418" fill="none" stroke="#8B5E83" stroke-opacity="0.22" stroke-width="1.5"/>
<rect x="470" y="405" width="128" height="26" rx="6" fill="#8B5E83" opacity="0.92"/>
<text x="534" y="423" text-anchor="middle" font-family="Cormorant Garamond, serif" font-size="15" fill="#fff">$100,000</text>
<path d="M 598 418 L 648 418" stroke="#8B5E83" stroke-opacity="0.3" stroke-width="1.5"/>
<circle cx="666" cy="418" r="13" fill="#FBF8F2" stroke="#8B5E83" stroke-opacity="0.5" stroke-width="1.4"/>
<circle cx="666" cy="418" r="4.5" fill="#C9A84C"/>
<text x="470" y="40" text-anchor="start" font-family="Satoshi, sans-serif" font-size="11" font-weight="700" letter-spacing="2" fill="#8B5E83">10 SPVs, ONE PER COMPANY</text>
<text x="760" y="240" text-anchor="start" font-family="Cormorant Garamond, serif" font-size="34" font-style="normal" fill="#2F3E34">$1,000,000</text>
<text x="760" y="266" text-anchor="start" font-family="Cormorant Garamond, serif" font-size="18" font-style="normal" fill="#7E8E84">into Utah companies</text>
</svg>